<svg width="805" height="450" viewBox="0 0 805 450" fill="none" xmlns="http://www.w3.org/2000/svg">
<g filter="url(#filter0_d_143_501)">
<path d="M252.123 49.8553C244.087 12.0772 207.541 33.6849 121.261 91.36C-2.68155 174.211 10.0021 409.391 182.721 402.867C216.64 401.586 246.614 395.819 272.767 387.879C369.972 358.37 446.114 363.093 543.859 390.76C566.592 397.195 592.615 401.747 622.279 402.867C794.998 409.391 807.682 174.211 683.739 91.36C597.986 34.0372 561.361 14.0458 553.028 49.8604C550.394 61.1769 541.695 70.8103 530.076 70.8103H401.461H274.924C263.305 70.8103 254.54 61.2199 252.123 49.8553Z" fill="black"/>
<path d="M252.123 49.8553C244.087 12.0772 207.541 33.6849 121.261 91.36C-2.68155 174.211 10.0021 409.391 182.721 402.867C216.64 401.586 246.614 395.819 272.767 387.879C369.972 358.37 446.114 363.093 543.859 390.76C566.592 397.195 592.615 401.747 622.279 402.867C794.998 409.391 807.682 174.211 683.739 91.36C597.986 34.0372 561.361 14.0458 553.028 49.8604C550.394 61.1769 541.695 70.8103 530.076 70.8103H401.461H274.924C263.305 70.8103 254.54 61.2199 252.123 49.8553Z" stroke="url(#paint0_linear_143_501)" stroke-width="3.78625"/>
</g>
<path d="M701.936 349.717C722.23 329.423 736.051 303.567 741.65 275.419C747.249 247.27 744.375 218.094 733.392 191.578C722.409 165.063 703.81 142.4 679.947 126.455C656.084 110.511 628.028 102 599.328 102C570.629 102 542.573 110.511 518.71 126.455C494.847 142.4 476.248 165.063 465.265 191.578C454.282 218.094 451.408 247.27 457.007 275.419C462.606 303.567 476.427 329.423 496.721 349.717" stroke="#3F4140" stroke-width="2"/>
<g filter="url(#filter1_i_143_501)">
<path d="M696.806 345.3C716.085 325.962 729.214 301.325 734.533 274.503C739.853 247.68 737.123 219.879 726.689 194.613C716.255 169.347 698.586 147.752 675.916 132.558C653.246 117.365 626.593 109.255 599.328 109.255C572.064 109.255 545.411 117.365 522.741 132.558C500.071 147.752 482.402 169.347 471.968 194.613C461.534 219.879 458.804 247.68 464.123 274.503C469.442 301.325 482.572 325.962 501.851 345.3" stroke="#1B1A1D" stroke-width="20"/>
</g>
<path d="M692.871 341.431C711.417 322.886 724.046 299.258 729.163 273.535C734.279 247.812 731.653 221.15 721.617 196.919C711.58 172.689 694.584 151.979 672.777 137.408C650.97 122.837 625.332 115.06 599.106 115.06C572.879 115.06 547.241 122.837 525.434 137.408C503.627 151.979 486.631 172.689 476.595 196.919C466.558 221.15 463.932 247.812 469.049 273.535C474.165 299.258 486.795 322.886 505.34 341.431" stroke="#A07A56" stroke-width="2"/>
<path d="M689.895 337.561C707.855 319.69 720.086 296.92 725.041 272.132C729.996 247.343 727.453 221.649 717.733 198.299C708.013 174.949 691.553 154.991 670.434 140.95C649.315 126.908 624.486 119.414 599.087 119.414C573.687 119.414 548.858 126.908 527.739 140.95C506.62 154.991 490.16 174.949 480.44 198.299C470.72 221.649 468.177 247.343 473.132 272.132C478.088 296.92 490.319 319.69 508.279 337.561" stroke="#334ABD" stroke-opacity="0.5" stroke-width="16"/>
<g filter="url(#filter2_i_143_501)">
<path d="M644.474 295C653.424 286.07 659.52 274.693 661.989 262.307C664.459 249.922 663.191 237.083 658.347 225.416C653.503 213.749 645.3 203.777 634.775 196.761C624.251 189.745 611.877 186 599.219 186C586.561 186 574.187 189.745 563.663 196.761C553.138 203.777 544.935 213.749 540.091 225.416C535.247 237.083 533.979 249.922 536.449 262.307C538.918 274.693 545.014 286.07 553.964 295" stroke="#1B1A1D" stroke-width="13"/>
</g>
<rect x="595.91" y="108.288" width="2.90219" height="5.80438" fill="white"/>
<rect x="671.651" y="129.087" width="2.90219" height="5.80438" transform="rotate(32.9096 671.651 129.087)" fill="white"/>
<rect width="2.90219" height="5.80438" transform="matrix(-0.839529 0.543315 0.543316 0.839528 523.224 131.571)" fill="white"/>
<rect width="2.41849" height="5.6656" transform="matrix(-0.958036 0.286648 0.286648 0.958036 560.113 114.576)" fill="#AA3333"/>
<rect width="2.41849" height="5.6656" transform="matrix(-0.638497 0.769624 0.769624 0.638497 492.91 158.723)" fill="#515253"/>
<rect width="2.41849" height="5.6656" transform="matrix(-0.122382 0.992483 0.992483 0.122382 461.771 231.245)" fill="#AA3333"/>
<rect width="2.41849" height="5.85679" transform="matrix(0.355455 0.934693 0.934693 -0.355455 475.214 309.01)" fill="#515253"/>
<rect x="724.543" y="188.931" width="2.90219" height="5.80438" transform="rotate(66.2703 724.543 188.931)" fill="white"/>
<rect width="2.90219" height="5.80438" transform="matrix(-0.402423 0.915454 0.915454 0.402422 471.332 193.415)" fill="white"/>
<rect x="737.368" y="261.143" width="2.90219" height="5.80438" transform="rotate(93.97 737.368 261.143)" fill="white"/>
<path d="M462 271.402L462.201 274.297L467.992 273.895L467.791 271L462 271.402Z" fill="white"/>
<rect x="707.49" y="335.054" width="2.90219" height="5.80438" transform="rotate(133.082 707.49 335.054)" fill="white"/>
<rect width="2.90219" height="5.80438" transform="matrix(0.683044 0.730377 0.730377 -0.683044 496.385 341.538)" fill="white"/>
<path d="M639.034 114.806L636.725 114.086L635.04 119.495L637.348 120.215L639.034 114.806Z" fill="#515253"/>
<path d="M704.77 156.975L703.155 155.174L698.938 158.957L700.553 160.757L704.77 156.975Z" fill="#515253"/>
<rect width="2.41849" height="5.6656" transform="matrix(-0.167435 -0.985883 -0.985883 0.167435 736.21 227.384)" fill="#515253"/>
<rect width="2.41849" height="5.6656" transform="matrix(0.403264 -0.915084 -0.915084 -0.403264 726.404 301.498)" fill="#515253"/>
<path d="M522.348 322.613C522.348 321.811 522.321 321.15 522.266 320.631C522.211 320.111 522.109 319.701 521.958 319.4C521.812 319.1 521.598 318.881 521.316 318.744C521.038 318.603 520.675 318.514 520.229 318.478C519.782 318.437 519.233 318.416 518.581 318.416H517.173C516.521 318.416 515.972 318.437 515.526 318.478C515.079 318.514 514.714 318.603 514.432 318.744C514.154 318.881 513.94 319.1 513.789 319.4C513.643 319.701 513.543 320.111 513.489 320.631C513.434 321.15 513.406 321.811 513.406 322.613V322.887C513.406 323.661 513.434 324.304 513.489 324.814C513.543 325.325 513.643 325.733 513.789 326.038C513.94 326.343 514.154 326.571 514.432 326.722C514.714 326.872 515.079 326.97 515.526 327.016C515.972 327.061 516.521 327.084 517.173 327.084H518.581C519.233 327.084 519.782 327.061 520.229 327.016C520.675 326.97 521.038 326.872 521.316 326.722C521.598 326.571 521.812 326.343 521.958 326.038C522.109 325.733 522.211 325.325 522.266 324.814C522.321 324.304 522.348 323.661 522.348 322.887V322.613ZM512.094 322.887V322.613C512.094 321.684 512.14 320.904 512.231 320.275C512.322 319.642 512.479 319.127 512.702 318.73C512.926 318.334 513.229 318.031 513.612 317.821C513.999 317.612 514.484 317.47 515.068 317.397C515.651 317.32 516.353 317.281 517.173 317.281H518.581C519.402 317.281 520.103 317.32 520.687 317.397C521.27 317.47 521.753 317.612 522.136 317.821C522.523 318.031 522.829 318.334 523.052 318.73C523.275 319.127 523.433 319.642 523.524 320.275C523.615 320.904 523.66 321.684 523.66 322.613V322.887C523.66 324.012 523.585 324.926 523.435 325.628C523.289 326.33 523.029 326.868 522.656 327.241C522.286 327.615 521.771 327.87 521.111 328.007C520.45 328.148 519.607 328.219 518.581 328.219H517.173C516.148 328.219 515.305 328.148 514.644 328.007C513.983 327.87 513.466 327.615 513.092 327.241C512.723 326.868 512.463 326.33 512.313 325.628C512.167 324.926 512.094 324.012 512.094 322.887Z" fill="white"/>
<path d="M485.135 272.464C485.135 271.853 485.192 271.34 485.306 270.926C485.42 270.511 485.638 270.178 485.962 269.928C486.285 269.677 486.755 269.497 487.37 269.388C487.99 269.274 488.801 269.215 489.804 269.21H492.251C492.962 269.21 493.516 269.187 493.912 269.142C494.313 269.091 494.605 269 494.787 268.868C494.969 268.731 495.081 268.535 495.122 268.28C495.168 268.021 495.19 267.681 495.19 267.262C495.19 266.824 495.149 266.48 495.067 266.229C494.985 265.979 494.824 265.797 494.582 265.683C494.34 265.569 493.983 265.496 493.509 265.464C493.039 265.432 492.415 265.416 491.636 265.416H490.146C489.33 265.416 488.676 265.432 488.184 265.464C487.696 265.496 487.327 265.569 487.076 265.683C486.826 265.797 486.657 265.979 486.57 266.229C486.488 266.48 486.447 266.824 486.447 267.262H485.135C485.135 266.665 485.201 266.173 485.333 265.785C485.47 265.398 485.714 265.095 486.064 264.876C486.42 264.657 486.921 264.505 487.568 264.418C488.215 264.327 489.052 264.281 490.077 264.281H491.704C492.693 264.281 493.502 264.327 494.131 264.418C494.76 264.505 495.245 264.657 495.587 264.876C495.933 265.095 496.173 265.398 496.305 265.785C496.437 266.173 496.503 266.665 496.503 267.262C496.503 268.027 496.4 268.633 496.195 269.08C495.995 269.522 495.639 269.839 495.129 270.03C494.623 270.217 493.908 270.311 492.982 270.311H489.975C489.159 270.311 488.514 270.338 488.04 270.393C487.566 270.447 487.215 270.552 486.987 270.707C486.759 270.857 486.611 271.074 486.543 271.356C486.479 271.639 486.447 272.008 486.447 272.464V273.906H496.086V275H485.135V272.464ZM508.445 269.613C508.445 268.811 508.418 268.15 508.363 267.631C508.309 267.111 508.206 266.701 508.056 266.4C507.91 266.1 507.696 265.881 507.413 265.744C507.135 265.603 506.773 265.514 506.326 265.478C505.88 265.437 505.33 265.416 504.679 265.416H503.271C502.619 265.416 502.07 265.437 501.623 265.478C501.176 265.514 500.812 265.603 500.529 265.744C500.251 265.881 500.037 266.1 499.887 266.4C499.741 266.701 499.641 267.111 499.586 267.631C499.531 268.15 499.504 268.811 499.504 269.613V269.887C499.504 270.661 499.531 271.304 499.586 271.814C499.641 272.325 499.741 272.733 499.887 273.038C500.037 273.343 500.251 273.571 500.529 273.722C500.812 273.872 501.176 273.97 501.623 274.016C502.07 274.061 502.619 274.084 503.271 274.084H504.679C505.33 274.084 505.88 274.061 506.326 274.016C506.773 273.97 507.135 273.872 507.413 273.722C507.696 273.571 507.91 273.343 508.056 273.038C508.206 272.733 508.309 272.325 508.363 271.814C508.418 271.304 508.445 270.661 508.445 269.887V269.613ZM498.191 269.887V269.613C498.191 268.684 498.237 267.904 498.328 267.275C498.419 266.642 498.576 266.127 498.8 265.73C499.023 265.334 499.326 265.031 499.709 264.821C500.096 264.612 500.582 264.47 501.165 264.397C501.748 264.32 502.45 264.281 503.271 264.281H504.679C505.499 264.281 506.201 264.32 506.784 264.397C507.368 264.47 507.851 264.612 508.233 264.821C508.621 265.031 508.926 265.334 509.149 265.73C509.373 266.127 509.53 266.642 509.621 267.275C509.712 267.904 509.758 268.684 509.758 269.613V269.887C509.758 271.012 509.683 271.926 509.532 272.628C509.386 273.33 509.127 273.868 508.753 274.241C508.384 274.615 507.869 274.87 507.208 275.007C506.547 275.148 505.704 275.219 504.679 275.219H503.271C502.245 275.219 501.402 275.148 500.741 275.007C500.08 274.87 499.563 274.615 499.189 274.241C498.82 273.868 498.561 273.33 498.41 272.628C498.264 271.926 498.191 271.012 498.191 269.887Z" fill="white"/>
<path d="M499.281 209V206.812H490.094V205.5L498.844 198.5H500.594V205.719H502.344V206.812H500.594V209H499.281ZM491.406 205.719H499.281V199.375L491.406 205.719ZM514.348 203.613C514.348 202.811 514.321 202.15 514.266 201.631C514.211 201.111 514.109 200.701 513.958 200.4C513.812 200.1 513.598 199.881 513.316 199.744C513.038 199.603 512.675 199.514 512.229 199.478C511.782 199.437 511.233 199.416 510.581 199.416H509.173C508.521 199.416 507.972 199.437 507.526 199.478C507.079 199.514 506.714 199.603 506.432 199.744C506.154 199.881 505.94 200.1 505.789 200.4C505.643 200.701 505.543 201.111 505.489 201.631C505.434 202.15 505.406 202.811 505.406 203.613V203.887C505.406 204.661 505.434 205.304 505.489 205.814C505.543 206.325 505.643 206.733 505.789 207.038C505.94 207.343 506.154 207.571 506.432 207.722C506.714 207.872 507.079 207.97 507.526 208.016C507.972 208.061 508.521 208.084 509.173 208.084H510.581C511.233 208.084 511.782 208.061 512.229 208.016C512.675 207.97 513.038 207.872 513.316 207.722C513.598 207.571 513.812 207.343 513.958 207.038C514.109 206.733 514.211 206.325 514.266 205.814C514.321 205.304 514.348 204.661 514.348 203.887V203.613ZM504.094 203.887V203.613C504.094 202.684 504.14 201.904 504.231 201.275C504.322 200.642 504.479 200.127 504.702 199.73C504.926 199.334 505.229 199.031 505.612 198.821C505.999 198.612 506.484 198.47 507.068 198.397C507.651 198.32 508.353 198.281 509.173 198.281H510.581C511.402 198.281 512.103 198.32 512.687 198.397C513.27 198.47 513.753 198.612 514.136 198.821C514.523 199.031 514.829 199.334 515.052 199.73C515.275 200.127 515.433 200.642 515.524 201.275C515.615 201.904 515.66 202.684 515.66 203.613V203.887C515.66 205.012 515.585 205.926 515.435 206.628C515.289 207.33 515.029 207.868 514.656 208.241C514.286 208.615 513.771 208.87 513.111 209.007C512.45 209.148 511.607 209.219 510.581 209.219H509.173C508.148 209.219 507.305 209.148 506.644 209.007C505.983 208.87 505.466 208.615 505.092 208.241C504.723 207.868 504.463 207.33 504.313 206.628C504.167 205.926 504.094 205.012 504.094 203.887Z" fill="white"/>
<path d="M533.05 164.219C532.025 164.219 531.198 164.164 530.569 164.055C529.94 163.945 529.459 163.765 529.126 163.515C528.794 163.264 528.568 162.931 528.449 162.517C528.336 162.097 528.279 161.58 528.279 160.965V156.33C528.279 155.733 528.345 155.239 528.477 154.847C528.614 154.45 528.857 154.138 529.208 153.91C529.564 153.682 530.065 153.521 530.712 153.425C531.359 153.329 532.196 153.281 533.221 153.281H534.848C535.855 153.281 536.669 153.327 537.288 153.418C537.913 153.505 538.389 153.657 538.717 153.876C539.045 154.095 539.266 154.398 539.38 154.785C539.499 155.173 539.558 155.665 539.558 156.262H538.245C538.245 155.824 538.211 155.48 538.143 155.229C538.079 154.979 537.933 154.797 537.705 154.683C537.482 154.569 537.138 154.496 536.673 154.464C536.208 154.432 535.577 154.416 534.78 154.416H533.289C532.474 154.416 531.82 154.437 531.327 154.478C530.84 154.514 530.471 154.594 530.22 154.717C529.969 154.84 529.801 155.031 529.714 155.291C529.632 155.546 529.591 155.893 529.591 156.33V158.723C530.006 158.244 530.76 158.005 531.854 158.005H535.463C536.416 158.005 537.179 158.06 537.753 158.169C538.327 158.274 538.76 158.445 539.052 158.682C539.348 158.914 539.544 159.219 539.64 159.598C539.74 159.971 539.79 160.427 539.79 160.965C539.79 161.58 539.731 162.097 539.613 162.517C539.499 162.931 539.275 163.264 538.943 163.515C538.61 163.765 538.129 163.945 537.5 164.055C536.871 164.164 536.044 164.219 535.019 164.219H533.05ZM538.478 160.965C538.478 160.559 538.446 160.233 538.382 159.987C538.318 159.741 538.175 159.554 537.951 159.427C537.728 159.299 537.382 159.215 536.912 159.174C536.443 159.128 535.8 159.105 534.985 159.105H533.084C532.268 159.105 531.626 159.128 531.156 159.174C530.687 159.215 530.341 159.299 530.117 159.427C529.894 159.554 529.751 159.741 529.687 159.987C529.623 160.233 529.591 160.559 529.591 160.965C529.591 161.421 529.623 161.787 529.687 162.065C529.755 162.343 529.903 162.558 530.131 162.708C530.359 162.854 530.71 162.954 531.184 163.009C531.658 163.059 532.303 163.084 533.118 163.084H534.95C535.766 163.084 536.411 163.059 536.885 163.009C537.359 162.954 537.71 162.854 537.938 162.708C538.166 162.558 538.311 162.343 538.375 162.065C538.444 161.787 538.478 161.421 538.478 160.965ZM551.664 158.613C551.664 157.811 551.637 157.15 551.582 156.631C551.528 156.111 551.425 155.701 551.275 155.4C551.129 155.1 550.915 154.881 550.632 154.744C550.354 154.603 549.992 154.514 549.545 154.478C549.099 154.437 548.549 154.416 547.898 154.416H546.49C545.838 154.416 545.289 154.437 544.842 154.478C544.395 154.514 544.031 154.603 543.748 154.744C543.47 154.881 543.256 155.1 543.106 155.4C542.96 155.701 542.86 156.111 542.805 156.631C542.75 157.15 542.723 157.811 542.723 158.613V158.887C542.723 159.661 542.75 160.304 542.805 160.814C542.86 161.325 542.96 161.733 543.106 162.038C543.256 162.343 543.47 162.571 543.748 162.722C544.031 162.872 544.395 162.97 544.842 163.016C545.289 163.061 545.838 163.084 546.49 163.084H547.898C548.549 163.084 549.099 163.061 549.545 163.016C549.992 162.97 550.354 162.872 550.632 162.722C550.915 162.571 551.129 162.343 551.275 162.038C551.425 161.733 551.528 161.325 551.582 160.814C551.637 160.304 551.664 159.661 551.664 158.887V158.613ZM541.41 158.887V158.613C541.41 157.684 541.456 156.904 541.547 156.275C541.638 155.642 541.795 155.127 542.019 154.73C542.242 154.334 542.545 154.031 542.928 153.821C543.315 153.612 543.801 153.47 544.384 153.397C544.967 153.32 545.669 153.281 546.49 153.281H547.898C548.718 153.281 549.42 153.32 550.003 153.397C550.587 153.47 551.07 153.612 551.452 153.821C551.84 154.031 552.145 154.334 552.368 154.73C552.592 155.127 552.749 155.642 552.84 156.275C552.931 156.904 552.977 157.684 552.977 158.613V158.887C552.977 160.012 552.902 160.926 552.751 161.628C552.605 162.33 552.346 162.868 551.972 163.241C551.603 163.615 551.088 163.87 550.427 164.007C549.766 164.148 548.923 164.219 547.898 164.219H546.49C545.464 164.219 544.621 164.148 543.96 164.007C543.299 163.87 542.782 163.615 542.408 163.241C542.039 162.868 541.78 162.33 541.629 161.628C541.483 160.926 541.41 160.012 541.41 158.887Z" fill="white"/>
<path d="M597.321 136.262C597.321 135.824 597.277 135.48 597.191 135.229C597.109 134.979 596.942 134.797 596.692 134.683C596.441 134.569 596.07 134.496 595.577 134.464C595.09 134.432 594.438 134.416 593.622 134.416H592.132C591.316 134.416 590.662 134.432 590.17 134.464C589.683 134.496 589.313 134.569 589.063 134.683C588.812 134.797 588.643 134.979 588.557 135.229C588.475 135.48 588.434 135.824 588.434 136.262C588.434 136.631 588.463 136.932 588.523 137.164C588.582 137.392 588.714 137.567 588.919 137.69C589.129 137.809 589.45 137.891 589.883 137.937C590.316 137.982 590.906 138.005 591.654 138.005H594.101C594.848 138.005 595.438 137.982 595.871 137.937C596.304 137.891 596.623 137.809 596.828 137.69C597.038 137.567 597.172 137.392 597.232 137.164C597.291 136.932 597.321 136.631 597.321 136.262ZM587.121 140.965C587.121 140.231 587.253 139.668 587.518 139.276C587.782 138.884 588.126 138.645 588.55 138.559C588.131 138.481 587.787 138.256 587.518 137.882C587.253 137.508 587.121 136.968 587.121 136.262C587.121 135.665 587.187 135.173 587.32 134.785C587.456 134.398 587.7 134.095 588.051 133.876C588.406 133.657 588.908 133.505 589.555 133.418C590.202 133.327 591.038 133.281 592.064 133.281H593.691C594.716 133.281 595.552 133.327 596.199 133.418C596.847 133.505 597.346 133.657 597.697 133.876C598.052 134.095 598.296 134.398 598.428 134.785C598.565 135.173 598.633 135.665 598.633 136.262C598.633 136.968 598.499 137.508 598.23 137.882C597.965 138.256 597.624 138.481 597.204 138.559C597.628 138.645 597.972 138.884 598.237 139.276C598.501 139.668 598.633 140.231 598.633 140.965C598.633 141.58 598.574 142.097 598.455 142.517C598.341 142.931 598.118 143.264 597.785 143.515C597.453 143.765 596.972 143.945 596.343 144.055C595.714 144.164 594.887 144.219 593.862 144.219H591.893C590.867 144.219 590.04 144.164 589.411 144.055C588.782 143.945 588.302 143.765 587.969 143.515C587.636 143.264 587.411 142.931 587.292 142.517C587.178 142.097 587.121 141.58 587.121 140.965ZM597.321 140.965C597.321 140.559 597.289 140.233 597.225 139.987C597.161 139.741 597.017 139.554 596.794 139.427C596.571 139.299 596.225 139.215 595.755 139.174C595.286 139.128 594.643 139.105 593.827 139.105H591.927C591.111 139.105 590.469 139.128 589.999 139.174C589.53 139.215 589.184 139.299 588.96 139.427C588.737 139.554 588.593 139.741 588.53 139.987C588.466 140.233 588.434 140.559 588.434 140.965C588.434 141.421 588.466 141.787 588.53 142.065C588.598 142.343 588.746 142.558 588.974 142.708C589.202 142.854 589.553 142.954 590.027 143.009C590.501 143.059 591.145 143.084 591.961 143.084H593.793C594.609 143.084 595.254 143.059 595.728 143.009C596.202 142.954 596.553 142.854 596.781 142.708C597.008 142.558 597.154 142.343 597.218 142.065C597.286 141.787 597.321 141.421 597.321 140.965ZM610.664 138.613C610.664 137.811 610.637 137.15 610.582 136.631C610.528 136.111 610.425 135.701 610.275 135.4C610.129 135.1 609.915 134.881 609.632 134.744C609.354 134.603 608.992 134.514 608.545 134.478C608.099 134.437 607.549 134.416 606.898 134.416H605.49C604.838 134.416 604.289 134.437 603.842 134.478C603.395 134.514 603.031 134.603 602.748 134.744C602.47 134.881 602.256 135.1 602.106 135.4C601.96 135.701 601.86 136.111 601.805 136.631C601.75 137.15 601.723 137.811 601.723 138.613V138.887C601.723 139.661 601.75 140.304 601.805 140.814C601.86 141.325 601.96 141.733 602.106 142.038C602.256 142.343 602.47 142.571 602.748 142.722C603.031 142.872 603.395 142.97 603.842 143.016C604.289 143.061 604.838 143.084 605.49 143.084H606.898C607.549 143.084 608.099 143.061 608.545 143.016C608.992 142.97 609.354 142.872 609.632 142.722C609.915 142.571 610.129 142.343 610.275 142.038C610.425 141.733 610.528 141.325 610.582 140.814C610.637 140.304 610.664 139.661 610.664 138.887V138.613ZM600.41 138.887V138.613C600.41 137.684 600.456 136.904 600.547 136.275C600.638 135.642 600.795 135.127 601.019 134.73C601.242 134.334 601.545 134.031 601.928 133.821C602.315 133.612 602.801 133.47 603.384 133.397C603.967 133.32 604.669 133.281 605.49 133.281H606.898C607.718 133.281 608.42 133.32 609.003 133.397C609.587 133.47 610.07 133.612 610.452 133.821C610.84 134.031 611.145 134.334 611.368 134.73C611.592 135.127 611.749 135.642 611.84 136.275C611.931 136.904 611.977 137.684 611.977 138.613V138.887C611.977 140.012 611.902 140.926 611.751 141.628C611.605 142.33 611.346 142.868 610.972 143.241C610.603 143.615 610.088 143.87 609.427 144.007C608.766 144.148 607.923 144.219 606.898 144.219H605.49C604.464 144.219 603.621 144.148 602.96 144.007C602.299 143.87 601.782 143.615 601.408 143.241C601.039 142.868 600.78 142.33 600.629 141.628C600.483 140.926 600.41 140.012 600.41 138.887Z" fill="white"/>
<path d="M629.871 162V160.906H634.069V152.607L630.152 153.913L629.735 152.901L633.973 151.5H635.381V160.906H639.045V162H629.871ZM651.664 156.613C651.664 155.811 651.637 155.15 651.582 154.631C651.528 154.111 651.425 153.701 651.275 153.4C651.129 153.1 650.915 152.881 650.632 152.744C650.354 152.603 649.992 152.514 649.545 152.478C649.099 152.437 648.549 152.416 647.898 152.416H646.49C645.838 152.416 645.289 152.437 644.842 152.478C644.395 152.514 644.031 152.603 643.748 152.744C643.47 152.881 643.256 153.1 643.106 153.4C642.96 153.701 642.86 154.111 642.805 154.631C642.75 155.15 642.723 155.811 642.723 156.613V156.887C642.723 157.661 642.75 158.304 642.805 158.814C642.86 159.325 642.96 159.733 643.106 160.038C643.256 160.343 643.47 160.571 643.748 160.722C644.031 160.872 644.395 160.97 644.842 161.016C645.289 161.061 645.838 161.084 646.49 161.084H647.898C648.549 161.084 649.099 161.061 649.545 161.016C649.992 160.97 650.354 160.872 650.632 160.722C650.915 160.571 651.129 160.343 651.275 160.038C651.425 159.733 651.528 159.325 651.582 158.814C651.637 158.304 651.664 157.661 651.664 156.887V156.613ZM641.41 156.887V156.613C641.41 155.684 641.456 154.904 641.547 154.275C641.638 153.642 641.795 153.127 642.019 152.73C642.242 152.334 642.545 152.031 642.928 151.821C643.315 151.612 643.801 151.47 644.384 151.397C644.967 151.32 645.669 151.281 646.49 151.281H647.898C648.718 151.281 649.42 151.32 650.003 151.397C650.587 151.47 651.07 151.612 651.452 151.821C651.84 152.031 652.145 152.334 652.368 152.73C652.592 153.127 652.749 153.642 652.84 154.275C652.931 154.904 652.977 155.684 652.977 156.613V156.887C652.977 158.012 652.902 158.926 652.751 159.628C652.605 160.33 652.346 160.868 651.972 161.241C651.603 161.615 651.088 161.87 650.427 162.007C649.766 162.148 648.923 162.219 647.898 162.219H646.49C645.464 162.219 644.621 162.148 643.96 162.007C643.299 161.87 642.782 161.615 642.408 161.241C642.039 160.868 641.78 160.33 641.629 159.628C641.483 158.926 641.41 158.012 641.41 156.887ZM664.981 156.613C664.981 155.811 664.953 155.15 664.899 154.631C664.844 154.111 664.741 153.701 664.591 153.4C664.445 153.1 664.231 152.881 663.948 152.744C663.67 152.603 663.308 152.514 662.862 152.478C662.415 152.437 661.866 152.416 661.214 152.416H659.806C659.154 152.416 658.605 152.437 658.158 152.478C657.712 152.514 657.347 152.603 657.065 152.744C656.787 152.881 656.573 153.1 656.422 153.4C656.276 153.701 656.176 154.111 656.121 154.631C656.067 155.15 656.039 155.811 656.039 156.613V156.887C656.039 157.661 656.067 158.304 656.121 158.814C656.176 159.325 656.276 159.733 656.422 160.038C656.573 160.343 656.787 160.571 657.065 160.722C657.347 160.872 657.712 160.97 658.158 161.016C658.605 161.061 659.154 161.084 659.806 161.084H661.214C661.866 161.084 662.415 161.061 662.862 161.016C663.308 160.97 663.67 160.872 663.948 160.722C664.231 160.571 664.445 160.343 664.591 160.038C664.741 159.733 664.844 159.325 664.899 158.814C664.953 158.304 664.981 157.661 664.981 156.887V156.613ZM654.727 156.887V156.613C654.727 155.684 654.772 154.904 654.864 154.275C654.955 153.642 655.112 153.127 655.335 152.73C655.559 152.334 655.862 152.031 656.244 151.821C656.632 151.612 657.117 151.47 657.7 151.397C658.284 151.32 658.986 151.281 659.806 151.281H661.214C662.034 151.281 662.736 151.32 663.32 151.397C663.903 151.47 664.386 151.612 664.769 151.821C665.156 152.031 665.462 152.334 665.685 152.73C665.908 153.127 666.065 153.642 666.156 154.275C666.248 154.904 666.293 155.684 666.293 156.613V156.887C666.293 158.012 666.218 158.926 666.068 159.628C665.922 160.33 665.662 160.868 665.288 161.241C664.919 161.615 664.404 161.87 663.743 162.007C663.083 162.148 662.24 162.219 661.214 162.219H659.806C658.781 162.219 657.937 162.148 657.277 162.007C656.616 161.87 656.099 161.615 655.725 161.241C655.356 160.868 655.096 160.33 654.946 159.628C654.8 158.926 654.727 158.012 654.727 156.887Z" fill="white"/>
<path d="M670.871 210V208.906H675.069V200.607L671.152 201.913L670.735 200.901L674.973 199.5H676.381V208.906H680.045V210H670.871ZM682.67 207.464C682.67 206.853 682.727 206.34 682.841 205.926C682.955 205.511 683.174 205.178 683.497 204.928C683.821 204.677 684.29 204.497 684.906 204.388C685.525 204.274 686.337 204.215 687.339 204.21H689.786C690.497 204.21 691.051 204.187 691.448 204.142C691.849 204.091 692.14 204 692.323 203.868C692.505 203.731 692.616 203.535 692.657 203.28C692.703 203.021 692.726 202.681 692.726 202.262C692.726 201.824 692.685 201.48 692.603 201.229C692.521 200.979 692.359 200.797 692.117 200.683C691.876 200.569 691.518 200.496 691.044 200.464C690.575 200.432 689.95 200.416 689.171 200.416H687.681C686.865 200.416 686.211 200.432 685.719 200.464C685.231 200.496 684.862 200.569 684.612 200.683C684.361 200.797 684.192 200.979 684.106 201.229C684.024 201.48 683.983 201.824 683.983 202.262H682.67C682.67 201.665 682.736 201.173 682.868 200.785C683.005 200.398 683.249 200.095 683.6 199.876C683.955 199.657 684.457 199.505 685.104 199.418C685.751 199.327 686.587 199.281 687.613 199.281H689.24C690.228 199.281 691.037 199.327 691.666 199.418C692.295 199.505 692.781 199.657 693.122 199.876C693.469 200.095 693.708 200.398 693.84 200.785C693.972 201.173 694.038 201.665 694.038 202.262C694.038 203.027 693.936 203.633 693.731 204.08C693.53 204.522 693.175 204.839 692.664 205.03C692.158 205.217 691.443 205.311 690.518 205.311H687.51C686.694 205.311 686.049 205.338 685.575 205.393C685.101 205.447 684.751 205.552 684.523 205.707C684.295 205.857 684.147 206.074 684.078 206.356C684.015 206.639 683.983 207.008 683.983 207.464V208.906H693.621V210H682.67V207.464ZM705.981 204.613C705.981 203.811 705.953 203.15 705.899 202.631C705.844 202.111 705.741 201.701 705.591 201.4C705.445 201.1 705.231 200.881 704.948 200.744C704.67 200.603 704.308 200.514 703.862 200.478C703.415 200.437 702.866 200.416 702.214 200.416H700.806C700.154 200.416 699.605 200.437 699.158 200.478C698.712 200.514 698.347 200.603 698.065 200.744C697.787 200.881 697.573 201.1 697.422 201.4C697.276 201.701 697.176 202.111 697.121 202.631C697.067 203.15 697.039 203.811 697.039 204.613V204.887C697.039 205.661 697.067 206.304 697.121 206.814C697.176 207.325 697.276 207.733 697.422 208.038C697.573 208.343 697.787 208.571 698.065 208.722C698.347 208.872 698.712 208.97 699.158 209.016C699.605 209.061 700.154 209.084 700.806 209.084H702.214C702.866 209.084 703.415 209.061 703.862 209.016C704.308 208.97 704.67 208.872 704.948 208.722C705.231 208.571 705.445 208.343 705.591 208.038C705.741 207.733 705.844 207.325 705.899 206.814C705.953 206.304 705.981 205.661 705.981 204.887V204.613ZM695.727 204.887V204.613C695.727 203.684 695.772 202.904 695.864 202.275C695.955 201.642 696.112 201.127 696.335 200.73C696.559 200.334 696.862 200.031 697.244 199.821C697.632 199.612 698.117 199.47 698.7 199.397C699.284 199.32 699.986 199.281 700.806 199.281H702.214C703.034 199.281 703.736 199.32 704.32 199.397C704.903 199.47 705.386 199.612 705.769 199.821C706.156 200.031 706.462 200.334 706.685 200.73C706.908 201.127 707.065 201.642 707.156 202.275C707.248 202.904 707.293 203.684 707.293 204.613V204.887C707.293 206.012 707.218 206.926 707.068 207.628C706.922 208.33 706.662 208.868 706.288 209.241C705.919 209.615 705.404 209.87 704.743 210.007C704.083 210.148 703.24 210.219 702.214 210.219H700.806C699.781 210.219 698.937 210.148 698.277 210.007C697.616 209.87 697.099 209.615 696.725 209.241C696.356 208.868 696.096 208.33 695.946 207.628C695.8 206.926 695.727 206.012 695.727 204.887Z" fill="white"/>
<path d="M676.871 267V265.906H681.069V257.607L677.152 258.913L676.735 257.901L680.973 256.5H682.381V265.906H686.045V267H676.871ZM697.598 267V264.812H688.41V263.5L697.16 256.5H698.91V263.719H700.66V264.812H698.91V267H697.598ZM689.723 263.719H697.598V257.375L689.723 263.719ZM712.664 261.613C712.664 260.811 712.637 260.15 712.582 259.631C712.528 259.111 712.425 258.701 712.275 258.4C712.129 258.1 711.915 257.881 711.632 257.744C711.354 257.603 710.992 257.514 710.545 257.478C710.099 257.437 709.549 257.416 708.898 257.416H707.49C706.838 257.416 706.289 257.437 705.842 257.478C705.395 257.514 705.031 257.603 704.748 257.744C704.47 257.881 704.256 258.1 704.106 258.4C703.96 258.701 703.86 259.111 703.805 259.631C703.75 260.15 703.723 260.811 703.723 261.613V261.887C703.723 262.661 703.75 263.304 703.805 263.814C703.86 264.325 703.96 264.733 704.106 265.038C704.256 265.343 704.47 265.571 704.748 265.722C705.031 265.872 705.395 265.97 705.842 266.016C706.289 266.061 706.838 266.084 707.49 266.084H708.898C709.549 266.084 710.099 266.061 710.545 266.016C710.992 265.97 711.354 265.872 711.632 265.722C711.915 265.571 712.129 265.343 712.275 265.038C712.425 264.733 712.528 264.325 712.582 263.814C712.637 263.304 712.664 262.661 712.664 261.887V261.613ZM702.41 261.887V261.613C702.41 260.684 702.456 259.904 702.547 259.275C702.638 258.642 702.795 258.127 703.019 257.73C703.242 257.334 703.545 257.031 703.928 256.821C704.315 256.612 704.801 256.47 705.384 256.397C705.967 256.32 706.669 256.281 707.49 256.281H708.898C709.718 256.281 710.42 256.32 711.003 256.397C711.587 256.47 712.07 256.612 712.452 256.821C712.84 257.031 713.145 257.334 713.368 257.73C713.592 258.127 713.749 258.642 713.84 259.275C713.931 259.904 713.977 260.684 713.977 261.613V261.887C713.977 263.012 713.902 263.926 713.751 264.628C713.605 265.33 713.346 265.868 712.972 266.241C712.603 266.615 712.088 266.87 711.427 267.007C710.766 267.148 709.923 267.219 708.898 267.219H707.49C706.464 267.219 705.621 267.148 704.96 267.007C704.299 266.87 703.782 266.615 703.408 266.241C703.039 265.868 702.78 265.33 702.629 264.628C702.483 263.926 702.41 263.012 702.41 261.887Z" fill="white"/>
<path d="M655.871 320V318.906H660.069V310.607L656.152 311.913L655.735 310.901L659.973 309.5H661.381V318.906H665.045V320H655.871ZM672.366 320.219C671.341 320.219 670.514 320.164 669.885 320.055C669.256 319.945 668.775 319.765 668.443 319.515C668.11 319.264 667.884 318.931 667.766 318.517C667.652 318.097 667.595 317.58 667.595 316.965V312.33C667.595 311.733 667.661 311.239 667.793 310.847C667.93 310.45 668.174 310.138 668.525 309.91C668.88 309.682 669.381 309.521 670.029 309.425C670.676 309.329 671.512 309.281 672.537 309.281H674.164C675.171 309.281 675.985 309.327 676.605 309.418C677.229 309.505 677.705 309.657 678.033 309.876C678.362 310.095 678.583 310.398 678.697 310.785C678.815 311.173 678.874 311.665 678.874 312.262H677.562C677.562 311.824 677.528 311.48 677.459 311.229C677.395 310.979 677.25 310.797 677.022 310.683C676.798 310.569 676.454 310.496 675.99 310.464C675.525 310.432 674.893 310.416 674.096 310.416H672.606C671.79 310.416 671.136 310.437 670.644 310.478C670.156 310.514 669.787 310.594 669.536 310.717C669.286 310.84 669.117 311.031 669.031 311.291C668.948 311.546 668.907 311.893 668.907 312.33V314.723C669.322 314.244 670.076 314.005 671.17 314.005H674.78C675.732 314.005 676.495 314.06 677.07 314.169C677.644 314.274 678.077 314.445 678.368 314.682C678.665 314.914 678.861 315.219 678.956 315.598C679.057 315.971 679.107 316.427 679.107 316.965C679.107 317.58 679.047 318.097 678.929 318.517C678.815 318.931 678.592 319.264 678.259 319.515C677.926 319.765 677.446 319.945 676.817 320.055C676.188 320.164 675.361 320.219 674.335 320.219H672.366ZM677.794 316.965C677.794 316.559 677.762 316.233 677.698 315.987C677.635 315.741 677.491 315.554 677.268 315.427C677.045 315.299 676.698 315.215 676.229 315.174C675.759 315.128 675.117 315.105 674.301 315.105H672.401C671.585 315.105 670.942 315.128 670.473 315.174C670.003 315.215 669.657 315.299 669.434 315.427C669.211 315.554 669.067 315.741 669.003 315.987C668.939 316.233 668.907 316.559 668.907 316.965C668.907 317.421 668.939 317.787 669.003 318.065C669.072 318.343 669.22 318.558 669.448 318.708C669.675 318.854 670.026 318.954 670.5 319.009C670.974 319.059 671.619 319.084 672.435 319.084H674.267C675.083 319.084 675.727 319.059 676.201 319.009C676.675 318.954 677.026 318.854 677.254 318.708C677.482 318.558 677.628 318.343 677.692 318.065C677.76 317.787 677.794 317.421 677.794 316.965ZM690.981 314.613C690.981 313.811 690.953 313.15 690.899 312.631C690.844 312.111 690.741 311.701 690.591 311.4C690.445 311.1 690.231 310.881 689.948 310.744C689.67 310.603 689.308 310.514 688.862 310.478C688.415 310.437 687.866 310.416 687.214 310.416H685.806C685.154 310.416 684.605 310.437 684.158 310.478C683.712 310.514 683.347 310.603 683.065 310.744C682.787 310.881 682.573 311.1 682.422 311.4C682.276 311.701 682.176 312.111 682.121 312.631C682.067 313.15 682.039 313.811 682.039 314.613V314.887C682.039 315.661 682.067 316.304 682.121 316.814C682.176 317.325 682.276 317.733 682.422 318.038C682.573 318.343 682.787 318.571 683.065 318.722C683.347 318.872 683.712 318.97 684.158 319.016C684.605 319.061 685.154 319.084 685.806 319.084H687.214C687.866 319.084 688.415 319.061 688.862 319.016C689.308 318.97 689.67 318.872 689.948 318.722C690.231 318.571 690.445 318.343 690.591 318.038C690.741 317.733 690.844 317.325 690.899 316.814C690.953 316.304 690.981 315.661 690.981 314.887V314.613ZM680.727 314.887V314.613C680.727 313.684 680.772 312.904 680.864 312.275C680.955 311.642 681.112 311.127 681.335 310.73C681.559 310.334 681.862 310.031 682.244 309.821C682.632 309.612 683.117 309.47 683.7 309.397C684.284 309.32 684.986 309.281 685.806 309.281H687.214C688.034 309.281 688.736 309.32 689.32 309.397C689.903 309.47 690.386 309.612 690.769 309.821C691.156 310.031 691.462 310.334 691.685 310.73C691.908 311.127 692.065 311.642 692.156 312.275C692.248 312.904 692.293 313.684 692.293 314.613V314.887C692.293 316.012 692.218 316.926 692.068 317.628C691.922 318.33 691.662 318.868 691.288 319.241C690.919 319.615 690.404 319.87 689.743 320.007C689.083 320.148 688.24 320.219 687.214 320.219H685.806C684.781 320.219 683.937 320.148 683.277 320.007C682.616 319.87 682.099 319.615 681.725 319.241C681.356 318.868 681.096 318.33 680.946 317.628C680.8 316.926 680.727 316.012 680.727 314.887Z" fill="white"/>
<path d="M306.717 349.717C327.011 329.423 340.832 303.567 346.431 275.419C352.03 247.27 349.156 218.094 338.173 191.578C327.19 165.063 308.591 142.4 284.728 126.455C260.865 110.511 232.809 102 204.109 102C175.41 102 147.354 110.511 123.491 126.455C99.6279 142.4 81.0289 165.063 70.0459 191.578C59.0629 218.094 56.1892 247.27 61.7883 275.419C67.3874 303.567 81.2077 329.423 101.502 349.717" stroke="#3F4140" stroke-width="2"/>
<g filter="url(#filter3_i_143_501)">
<path d="M301.587 345.3C320.866 325.962 333.995 301.325 339.315 274.503C344.634 247.68 341.904 219.879 331.47 194.613C321.036 169.347 303.367 147.752 280.697 132.558C258.027 117.365 231.374 109.255 204.109 109.255C176.845 109.255 150.192 117.365 127.522 132.558C104.852 147.752 87.1829 169.347 76.7491 194.613C66.3152 219.879 63.5853 247.68 68.9044 274.503C74.2235 301.325 87.3528 325.962 106.632 345.3" stroke="#1B1A1D" stroke-width="20"/>
</g>
<path d="M297.652 341.43C316.197 322.885 328.827 299.257 333.943 273.534C339.06 247.812 336.434 221.149 326.397 196.919C316.361 172.688 299.365 151.978 277.558 137.408C255.751 122.837 230.113 115.06 203.887 115.06C177.66 115.06 152.022 122.837 130.215 137.408C108.408 151.978 91.4121 172.688 81.3756 196.919C71.339 221.149 68.713 247.812 73.8296 273.534C78.9462 299.257 91.5756 322.885 110.121 341.43" stroke="#A07A56" stroke-width="2"/>
<path d="M294.675 337.561C312.636 319.689 324.867 296.92 329.822 272.131C334.777 247.343 332.234 221.649 322.514 198.299C312.794 174.949 296.334 154.991 275.215 140.949C254.096 126.908 229.267 119.413 203.868 119.413C178.468 119.413 153.639 126.908 132.52 140.949C111.401 154.991 94.9413 174.949 85.2213 198.299C75.5014 221.649 72.9582 247.343 77.9134 272.131C82.8686 296.92 95.0996 319.689 113.06 337.561" stroke="url(#paint1_linear_143_501)" stroke-opacity="0.5" stroke-width="16"/>
<g filter="url(#filter4_i_143_501)">
<path d="M249.255 295C258.205 286.07 264.301 274.693 266.77 262.307C269.24 249.922 267.972 237.083 263.128 225.416C258.284 213.749 250.081 203.777 239.556 196.761C229.032 189.745 216.658 186 204 186C191.342 186 178.968 189.745 168.444 196.761C157.919 203.777 149.716 213.749 144.872 225.416C140.028 237.083 138.76 249.922 141.23 262.307C143.699 274.693 149.795 286.07 158.745 295" stroke="#1B1A1D" stroke-width="13"/>
</g>
<rect x="201.691" y="108.288" width="2.90219" height="5.80438" fill="white"/>
<rect x="330.324" y="190.931" width="2.90219" height="5.80438" transform="rotate(66.2703 330.324 190.931)" fill="white"/>
<rect width="2.90219" height="5.80438" transform="matrix(-0.402423 0.915454 0.915454 0.402422 77.1131 191.415)" fill="white"/>
<rect x="306.271" y="341.054" width="2.90219" height="5.80438" transform="rotate(133.082 306.271 341.054)" fill="white"/>
<rect width="2.90219" height="5.80438" transform="matrix(0.683044 0.730377 0.730377 -0.683044 101.166 341.538)" fill="white"/>
<path d="M130.129 316.613C130.129 315.811 130.102 315.15 130.047 314.631C129.992 314.111 129.89 313.701 129.739 313.4C129.593 313.1 129.379 312.881 129.097 312.744C128.819 312.603 128.456 312.514 128.01 312.478C127.563 312.437 127.014 312.416 126.362 312.416H124.954C124.302 312.416 123.753 312.437 123.307 312.478C122.86 312.514 122.495 312.603 122.213 312.744C121.935 312.881 121.721 313.1 121.57 313.4C121.424 313.701 121.324 314.111 121.27 314.631C121.215 315.15 121.188 315.811 121.188 316.613V316.887C121.188 317.661 121.215 318.304 121.27 318.814C121.324 319.325 121.424 319.733 121.57 320.038C121.721 320.343 121.935 320.571 122.213 320.722C122.495 320.872 122.86 320.97 123.307 321.016C123.753 321.061 124.302 321.084 124.954 321.084H126.362C127.014 321.084 127.563 321.061 128.01 321.016C128.456 320.97 128.819 320.872 129.097 320.722C129.379 320.571 129.593 320.343 129.739 320.038C129.89 319.733 129.992 319.325 130.047 318.814C130.102 318.304 130.129 317.661 130.129 316.887V316.613ZM119.875 316.887V316.613C119.875 315.684 119.921 314.904 120.012 314.275C120.103 313.642 120.26 313.127 120.483 312.73C120.707 312.334 121.01 312.031 121.393 311.821C121.78 311.612 122.265 311.47 122.849 311.397C123.432 311.32 124.134 311.281 124.954 311.281H126.362C127.183 311.281 127.884 311.32 128.468 311.397C129.051 311.47 129.534 311.612 129.917 311.821C130.304 312.031 130.61 312.334 130.833 312.73C131.056 313.127 131.214 313.642 131.305 314.275C131.396 314.904 131.441 315.684 131.441 316.613V316.887C131.441 318.012 131.366 318.926 131.216 319.628C131.07 320.33 130.81 320.868 130.437 321.241C130.067 321.615 129.552 321.87 128.892 322.007C128.231 322.148 127.388 322.219 126.362 322.219H124.954C123.929 322.219 123.086 322.148 122.425 322.007C121.764 321.87 121.247 321.615 120.873 321.241C120.504 320.868 120.244 320.33 120.094 319.628C119.948 318.926 119.875 318.012 119.875 316.887Z" fill="white"/>
<path d="M101.135 208.464C101.135 207.853 101.192 207.34 101.306 206.926C101.42 206.511 101.638 206.178 101.962 205.928C102.285 205.677 102.755 205.497 103.37 205.388C103.99 205.274 104.801 205.215 105.804 205.21H108.251C108.962 205.21 109.516 205.187 109.912 205.142C110.313 205.091 110.605 205 110.787 204.868C110.969 204.731 111.081 204.535 111.122 204.28C111.168 204.021 111.19 203.681 111.19 203.262C111.19 202.824 111.149 202.48 111.067 202.229C110.985 201.979 110.824 201.797 110.582 201.683C110.34 201.569 109.983 201.496 109.509 201.464C109.039 201.432 108.415 201.416 107.636 201.416H106.146C105.33 201.416 104.676 201.432 104.184 201.464C103.696 201.496 103.327 201.569 103.076 201.683C102.826 201.797 102.657 201.979 102.57 202.229C102.488 202.48 102.447 202.824 102.447 203.262H101.135C101.135 202.665 101.201 202.173 101.333 201.785C101.47 201.398 101.714 201.095 102.064 200.876C102.42 200.657 102.921 200.505 103.568 200.418C104.215 200.327 105.052 200.281 106.077 200.281H107.704C108.693 200.281 109.502 200.327 110.131 200.418C110.76 200.505 111.245 200.657 111.587 200.876C111.933 201.095 112.173 201.398 112.305 201.785C112.437 202.173 112.503 202.665 112.503 203.262C112.503 204.027 112.4 204.633 112.195 205.08C111.995 205.522 111.639 205.839 111.129 206.03C110.623 206.217 109.908 206.311 108.982 206.311H105.975C105.159 206.311 104.514 206.338 104.04 206.393C103.566 206.447 103.215 206.552 102.987 206.707C102.759 206.857 102.611 207.074 102.543 207.356C102.479 207.639 102.447 208.008 102.447 208.464V209.906H112.086V211H101.135V208.464ZM124.445 205.613C124.445 204.811 124.418 204.15 124.363 203.631C124.309 203.111 124.206 202.701 124.056 202.4C123.91 202.1 123.696 201.881 123.413 201.744C123.135 201.603 122.773 201.514 122.326 201.478C121.88 201.437 121.33 201.416 120.679 201.416H119.271C118.619 201.416 118.07 201.437 117.623 201.478C117.176 201.514 116.812 201.603 116.529 201.744C116.251 201.881 116.037 202.1 115.887 202.4C115.741 202.701 115.641 203.111 115.586 203.631C115.531 204.15 115.504 204.811 115.504 205.613V205.887C115.504 206.661 115.531 207.304 115.586 207.814C115.641 208.325 115.741 208.733 115.887 209.038C116.037 209.343 116.251 209.571 116.529 209.722C116.812 209.872 117.176 209.97 117.623 210.016C118.07 210.061 118.619 210.084 119.271 210.084H120.679C121.33 210.084 121.88 210.061 122.326 210.016C122.773 209.97 123.135 209.872 123.413 209.722C123.696 209.571 123.91 209.343 124.056 209.038C124.206 208.733 124.309 208.325 124.363 207.814C124.418 207.304 124.445 206.661 124.445 205.887V205.613ZM114.191 205.887V205.613C114.191 204.684 114.237 203.904 114.328 203.275C114.419 202.642 114.576 202.127 114.8 201.73C115.023 201.334 115.326 201.031 115.709 200.821C116.096 200.612 116.582 200.47 117.165 200.397C117.748 200.32 118.45 200.281 119.271 200.281H120.679C121.499 200.281 122.201 200.32 122.784 200.397C123.368 200.47 123.851 200.612 124.233 200.821C124.621 201.031 124.926 201.334 125.149 201.73C125.373 202.127 125.53 202.642 125.621 203.275C125.712 203.904 125.758 204.684 125.758 205.613V205.887C125.758 207.012 125.683 207.926 125.532 208.628C125.386 209.33 125.127 209.868 124.753 210.241C124.384 210.615 123.869 210.87 123.208 211.007C122.547 211.148 121.704 211.219 120.679 211.219H119.271C118.245 211.219 117.402 211.148 116.741 211.007C116.08 210.87 115.563 210.615 115.189 210.241C114.82 209.868 114.561 209.33 114.41 208.628C114.264 207.926 114.191 207.012 114.191 205.887Z" fill="white"/>
<path d="M199.062 149V146.812H189.875V145.5L198.625 138.5H200.375V145.719H202.125V146.812H200.375V149H199.062ZM191.188 145.719H199.062V139.375L191.188 145.719ZM214.129 143.613C214.129 142.811 214.102 142.15 214.047 141.631C213.992 141.111 213.89 140.701 213.739 140.4C213.593 140.1 213.379 139.881 213.097 139.744C212.819 139.603 212.456 139.514 212.01 139.478C211.563 139.437 211.014 139.416 210.362 139.416H208.954C208.302 139.416 207.753 139.437 207.307 139.478C206.86 139.514 206.495 139.603 206.213 139.744C205.935 139.881 205.721 140.1 205.57 140.4C205.424 140.701 205.324 141.111 205.27 141.631C205.215 142.15 205.188 142.811 205.188 143.613V143.887C205.188 144.661 205.215 145.304 205.27 145.814C205.324 146.325 205.424 146.733 205.57 147.038C205.721 147.343 205.935 147.571 206.213 147.722C206.495 147.872 206.86 147.97 207.307 148.016C207.753 148.061 208.302 148.084 208.954 148.084H210.362C211.014 148.084 211.563 148.061 212.01 148.016C212.456 147.97 212.819 147.872 213.097 147.722C213.379 147.571 213.593 147.343 213.739 147.038C213.89 146.733 213.992 146.325 214.047 145.814C214.102 145.304 214.129 144.661 214.129 143.887V143.613ZM203.875 143.887V143.613C203.875 142.684 203.921 141.904 204.012 141.275C204.103 140.642 204.26 140.127 204.483 139.73C204.707 139.334 205.01 139.031 205.393 138.821C205.78 138.612 206.265 138.47 206.849 138.397C207.432 138.32 208.134 138.281 208.954 138.281H210.362C211.183 138.281 211.884 138.32 212.468 138.397C213.051 138.47 213.534 138.612 213.917 138.821C214.304 139.031 214.61 139.334 214.833 139.73C215.056 140.127 215.214 140.642 215.305 141.275C215.396 141.904 215.441 142.684 215.441 143.613V143.887C215.441 145.012 215.366 145.926 215.216 146.628C215.07 147.33 214.81 147.868 214.437 148.241C214.067 148.615 213.552 148.87 212.892 149.007C212.231 149.148 211.388 149.219 210.362 149.219H208.954C207.929 149.219 207.086 149.148 206.425 149.007C205.764 148.87 205.247 148.615 204.873 148.241C204.504 147.868 204.244 147.33 204.094 146.628C203.948 145.926 203.875 145.012 203.875 143.887Z" fill="white"/>
<path d="M283.831 211.219C282.806 211.219 281.979 211.164 281.35 211.055C280.721 210.945 280.24 210.765 279.907 210.515C279.575 210.264 279.349 209.931 279.23 209.517C279.117 209.097 279.06 208.58 279.06 207.965V203.33C279.06 202.733 279.126 202.239 279.258 201.847C279.395 201.45 279.638 201.138 279.989 200.91C280.345 200.682 280.846 200.521 281.493 200.425C282.14 200.329 282.977 200.281 284.002 200.281H285.629C286.636 200.281 287.45 200.327 288.069 200.418C288.694 200.505 289.17 200.657 289.498 200.876C289.826 201.095 290.047 201.398 290.161 201.785C290.28 202.173 290.339 202.665 290.339 203.262H289.026C289.026 202.824 288.992 202.48 288.924 202.229C288.86 201.979 288.714 201.797 288.486 201.683C288.263 201.569 287.919 201.496 287.454 201.464C286.989 201.432 286.358 201.416 285.561 201.416H284.07C283.255 201.416 282.601 201.437 282.108 201.478C281.621 201.514 281.252 201.594 281.001 201.717C280.75 201.84 280.582 202.031 280.495 202.291C280.413 202.546 280.372 202.893 280.372 203.33V205.723C280.787 205.244 281.541 205.005 282.635 205.005H286.244C287.197 205.005 287.96 205.06 288.534 205.169C289.108 205.274 289.541 205.445 289.833 205.682C290.129 205.914 290.325 206.219 290.421 206.598C290.521 206.971 290.571 207.427 290.571 207.965C290.571 208.58 290.512 209.097 290.394 209.517C290.28 209.931 290.056 210.264 289.724 210.515C289.391 210.765 288.91 210.945 288.281 211.055C287.652 211.164 286.825 211.219 285.8 211.219H283.831ZM289.259 207.965C289.259 207.559 289.227 207.233 289.163 206.987C289.099 206.741 288.956 206.554 288.732 206.427C288.509 206.299 288.163 206.215 287.693 206.174C287.224 206.128 286.581 206.105 285.766 206.105H283.865C283.049 206.105 282.407 206.128 281.938 206.174C281.468 206.215 281.122 206.299 280.898 206.427C280.675 206.554 280.532 206.741 280.468 206.987C280.404 207.233 280.372 207.559 280.372 207.965C280.372 208.421 280.404 208.787 280.468 209.065C280.536 209.343 280.684 209.558 280.912 209.708C281.14 209.854 281.491 209.954 281.965 210.009C282.439 210.059 283.084 210.084 283.899 210.084H285.731C286.547 210.084 287.192 210.059 287.666 210.009C288.14 209.954 288.491 209.854 288.719 209.708C288.947 209.558 289.092 209.343 289.156 209.065C289.225 208.787 289.259 208.421 289.259 207.965ZM302.445 205.613C302.445 204.811 302.418 204.15 302.363 203.631C302.309 203.111 302.206 202.701 302.056 202.4C301.91 202.1 301.696 201.881 301.413 201.744C301.135 201.603 300.773 201.514 300.326 201.478C299.88 201.437 299.33 201.416 298.679 201.416H297.271C296.619 201.416 296.07 201.437 295.623 201.478C295.176 201.514 294.812 201.603 294.529 201.744C294.251 201.881 294.037 202.1 293.887 202.4C293.741 202.701 293.641 203.111 293.586 203.631C293.531 204.15 293.504 204.811 293.504 205.613V205.887C293.504 206.661 293.531 207.304 293.586 207.814C293.641 208.325 293.741 208.733 293.887 209.038C294.037 209.343 294.251 209.571 294.529 209.722C294.812 209.872 295.176 209.97 295.623 210.016C296.07 210.061 296.619 210.084 297.271 210.084H298.679C299.33 210.084 299.88 210.061 300.326 210.016C300.773 209.97 301.135 209.872 301.413 209.722C301.696 209.571 301.91 209.343 302.056 209.038C302.206 208.733 302.309 208.325 302.363 207.814C302.418 207.304 302.445 206.661 302.445 205.887V205.613ZM292.191 205.887V205.613C292.191 204.684 292.237 203.904 292.328 203.275C292.419 202.642 292.576 202.127 292.8 201.73C293.023 201.334 293.326 201.031 293.709 200.821C294.096 200.612 294.582 200.47 295.165 200.397C295.748 200.32 296.45 200.281 297.271 200.281H298.679C299.499 200.281 300.201 200.32 300.784 200.397C301.368 200.47 301.851 200.612 302.233 200.821C302.621 201.031 302.926 201.334 303.149 201.73C303.373 202.127 303.53 202.642 303.621 203.275C303.712 203.904 303.758 204.684 303.758 205.613V205.887C303.758 207.012 303.683 207.926 303.532 208.628C303.386 209.33 303.127 209.868 302.753 210.241C302.384 210.615 301.869 210.87 301.208 211.007C300.547 211.148 299.704 211.219 298.679 211.219H297.271C296.245 211.219 295.402 211.148 294.741 211.007C294.08 210.87 293.563 210.615 293.189 210.241C292.82 209.868 292.561 209.33 292.41 208.628C292.264 207.926 292.191 207.012 292.191 205.887Z" fill="white"/>
<path d="M272.102 314.262C272.102 313.824 272.058 313.48 271.972 313.229C271.89 312.979 271.723 312.797 271.473 312.683C271.222 312.569 270.851 312.496 270.358 312.464C269.871 312.432 269.219 312.416 268.403 312.416H266.913C266.097 312.416 265.443 312.432 264.951 312.464C264.464 312.496 264.094 312.569 263.844 312.683C263.593 312.797 263.424 312.979 263.338 313.229C263.256 313.48 263.215 313.824 263.215 314.262C263.215 314.631 263.244 314.932 263.304 315.164C263.363 315.392 263.495 315.567 263.7 315.69C263.91 315.809 264.231 315.891 264.664 315.937C265.097 315.982 265.687 316.005 266.435 316.005H268.882C269.629 316.005 270.219 315.982 270.652 315.937C271.085 315.891 271.404 315.809 271.609 315.69C271.819 315.567 271.953 315.392 272.013 315.164C272.072 314.932 272.102 314.631 272.102 314.262ZM261.902 318.965C261.902 318.231 262.035 317.668 262.299 317.276C262.563 316.884 262.907 316.645 263.331 316.559C262.912 316.481 262.568 316.256 262.299 315.882C262.035 315.508 261.902 314.968 261.902 314.262C261.902 313.665 261.968 313.173 262.101 312.785C262.237 312.398 262.481 312.095 262.832 311.876C263.188 311.657 263.689 311.505 264.336 311.418C264.983 311.327 265.819 311.281 266.845 311.281H268.472C269.497 311.281 270.333 311.327 270.98 311.418C271.628 311.505 272.127 311.657 272.478 311.876C272.833 312.095 273.077 312.398 273.209 312.785C273.346 313.173 273.414 313.665 273.414 314.262C273.414 314.968 273.28 315.508 273.011 315.882C272.746 316.256 272.405 316.481 271.985 316.559C272.409 316.645 272.753 316.884 273.018 317.276C273.282 317.668 273.414 318.231 273.414 318.965C273.414 319.58 273.355 320.097 273.236 320.517C273.122 320.931 272.899 321.264 272.566 321.515C272.234 321.765 271.753 321.945 271.124 322.055C270.495 322.164 269.668 322.219 268.643 322.219H266.674C265.648 322.219 264.821 322.164 264.192 322.055C263.563 321.945 263.083 321.765 262.75 321.515C262.417 321.264 262.192 320.931 262.073 320.517C261.959 320.097 261.902 319.58 261.902 318.965ZM272.102 318.965C272.102 318.559 272.07 318.233 272.006 317.987C271.942 317.741 271.799 317.554 271.575 317.427C271.352 317.299 271.006 317.215 270.536 317.174C270.067 317.128 269.424 317.105 268.608 317.105H266.708C265.892 317.105 265.25 317.128 264.78 317.174C264.311 317.215 263.965 317.299 263.741 317.427C263.518 317.554 263.374 317.741 263.311 317.987C263.247 318.233 263.215 318.559 263.215 318.965C263.215 319.421 263.247 319.787 263.311 320.065C263.379 320.343 263.527 320.558 263.755 320.708C263.983 320.854 264.334 320.954 264.808 321.009C265.282 321.059 265.926 321.084 266.742 321.084H268.574C269.39 321.084 270.035 321.059 270.509 321.009C270.983 320.954 271.334 320.854 271.562 320.708C271.789 320.558 271.935 320.343 271.999 320.065C272.067 319.787 272.102 319.421 272.102 318.965ZM285.445 316.613C285.445 315.811 285.418 315.15 285.363 314.631C285.309 314.111 285.206 313.701 285.056 313.4C284.91 313.1 284.696 312.881 284.413 312.744C284.135 312.603 283.773 312.514 283.326 312.478C282.88 312.437 282.33 312.416 281.679 312.416H280.271C279.619 312.416 279.07 312.437 278.623 312.478C278.176 312.514 277.812 312.603 277.529 312.744C277.251 312.881 277.037 313.1 276.887 313.4C276.741 313.701 276.641 314.111 276.586 314.631C276.531 315.15 276.504 315.811 276.504 316.613V316.887C276.504 317.661 276.531 318.304 276.586 318.814C276.641 319.325 276.741 319.733 276.887 320.038C277.037 320.343 277.251 320.571 277.529 320.722C277.812 320.872 278.176 320.97 278.623 321.016C279.07 321.061 279.619 321.084 280.271 321.084H281.679C282.33 321.084 282.88 321.061 283.326 321.016C283.773 320.97 284.135 320.872 284.413 320.722C284.696 320.571 284.91 320.343 285.056 320.038C285.206 319.733 285.309 319.325 285.363 318.814C285.418 318.304 285.445 317.661 285.445 316.887V316.613ZM275.191 316.887V316.613C275.191 315.684 275.237 314.904 275.328 314.275C275.419 313.642 275.576 313.127 275.8 312.73C276.023 312.334 276.326 312.031 276.709 311.821C277.096 311.612 277.582 311.47 278.165 311.397C278.748 311.32 279.45 311.281 280.271 311.281H281.679C282.499 311.281 283.201 311.32 283.784 311.397C284.368 311.47 284.851 311.612 285.233 311.821C285.621 312.031 285.926 312.334 286.149 312.73C286.373 313.127 286.53 313.642 286.621 314.275C286.712 314.904 286.758 315.684 286.758 316.613V316.887C286.758 318.012 286.683 318.926 286.532 319.628C286.386 320.33 286.127 320.868 285.753 321.241C285.384 321.615 284.869 321.87 284.208 322.007C283.547 322.148 282.704 322.219 281.679 322.219H280.271C279.245 322.219 278.402 322.148 277.741 322.007C277.08 321.87 276.563 321.615 276.189 321.241C275.82 320.868 275.561 320.33 275.41 319.628C275.264 318.926 275.191 318.012 275.191 316.887Z" fill="white"/>
<defs>
<filter id="filter0_d_143_501" x="0.327" y="0.43965" width="804.346" height="449.347" filterUnits="userSpaceOnUse" color-interpolation-filters="sRGB">
<feFlood flood-opacity="0" result="BackgroundImageFix"/>
<feColorMatrix in="SourceAlpha" type="matrix" values="0 0 0 0 0 0 0 0 0 0 0 0 0 0 0 0 0 0 127 0" result="hardAlpha"/>
<feOffset dy="8.11338"/>
<feGaussianBlur stdDeviation="18.3903"/>
<feComposite in2="hardAlpha" operator="out"/>
<feColorMatrix type="matrix" values="0 0 0 0 0 0 0 0 0 0 0 0 0 0 0 0 0 0 0.44 0"/>
<feBlend mode="normal" in2="BackgroundImageFix" result="effect1_dropShadow_143_501"/>
<feBlend mode="normal" in="SourceGraphic" in2="effect1_dropShadow_143_501" result="shape"/>
</filter>
<filter id="filter1_i_143_501" x="451.474" y="99.2554" width="295.708" height="254.105" filterUnits="userSpaceOnUse" color-interpolation-filters="sRGB">
<feFlood flood-opacity="0" result="BackgroundImageFix"/>
<feBlend mode="normal" in="SourceGraphic" in2="BackgroundImageFix" result="shape"/>
<feColorMatrix in="SourceAlpha" type="matrix" values="0 0 0 0 0 0 0 0 0 0 0 0 0 0 0 0 0 0 127 0" result="hardAlpha"/>
<feOffset dy="1"/>
<feGaussianBlur stdDeviation="1"/>
<feComposite in2="hardAlpha" operator="arithmetic" k2="-1" k3="1"/>
<feColorMatrix type="matrix" values="0 0 0 0 1 0 0 0 0 1 0 0 0 0 1 0 0 0 0.25 0"/>
<feBlend mode="normal" in2="shape" result="effect1_innerShadow_143_501"/>
</filter>
<filter id="filter2_i_143_501" x="528.719" y="179.5" width="141" height="121.102" filterUnits="userSpaceOnUse" color-interpolation-filters="sRGB">
<feFlood flood-opacity="0" result="BackgroundImageFix"/>
<feBlend mode="normal" in="SourceGraphic" in2="BackgroundImageFix" result="shape"/>
<feColorMatrix in="SourceAlpha" type="matrix" values="0 0 0 0 0 0 0 0 0 0 0 0 0 0 0 0 0 0 127 0" result="hardAlpha"/>
<feOffset dy="1"/>
<feGaussianBlur stdDeviation="1"/>
<feComposite in2="hardAlpha" operator="arithmetic" k2="-1" k3="1"/>
<feColorMatrix type="matrix" values="0 0 0 0 1 0 0 0 0 1 0 0 0 0 1 0 0 0 0.25 0"/>
<feBlend mode="normal" in2="shape" result="effect1_innerShadow_143_501"/>
</filter>
<filter id="filter3_i_143_501" x="56.2555" y="99.2554" width="295.708" height="254.105" filterUnits="userSpaceOnUse" color-interpolation-filters="sRGB">
<feFlood flood-opacity="0" result="BackgroundImageFix"/>
<feBlend mode="normal" in="SourceGraphic" in2="BackgroundImageFix" result="shape"/>
<feColorMatrix in="SourceAlpha" type="matrix" values="0 0 0 0 0 0 0 0 0 0 0 0 0 0 0 0 0 0 127 0" result="hardAlpha"/>
<feOffset dy="1"/>
<feGaussianBlur stdDeviation="1"/>
<feComposite in2="hardAlpha" operator="arithmetic" k2="-1" k3="1"/>
<feColorMatrix type="matrix" values="0 0 0 0 1 0 0 0 0 1 0 0 0 0 1 0 0 0 0.25 0"/>
<feBlend mode="normal" in2="shape" result="effect1_innerShadow_143_501"/>
</filter>
<filter id="filter4_i_143_501" x="133.5" y="179.5" width="141" height="121.102" filterUnits="userSpaceOnUse" color-interpolation-filters="sRGB">
<feFlood flood-opacity="0" result="BackgroundImageFix"/>
<feBlend mode="normal" in="SourceGraphic" in2="BackgroundImageFix" result="shape"/>
<feColorMatrix in="SourceAlpha" type="matrix" values="0 0 0 0 0 0 0 0 0 0 0 0 0 0 0 0 0 0 127 0" result="hardAlpha"/>
<feOffset dy="1"/>
<feGaussianBlur stdDeviation="1"/>
<feComposite in2="hardAlpha" operator="arithmetic" k2="-1" k3="1"/>
<feColorMatrix type="matrix" values="0 0 0 0 1 0 0 0 0 1 0 0 0 0 1 0 0 0 0.25 0"/>
<feBlend mode="normal" in2="shape" result="effect1_innerShadow_143_501"/>
</filter>
<linearGradient id="paint0_linear_143_501" x1="402.499" y1="71.9033" x2="402.479" y2="427.656" gradientUnits="userSpaceOnUse">
<stop offset="0.0413354" stop-color="#5D6694"/>
<stop offset="0.861522" stop-color="#001373"/>
</linearGradient>
<linearGradient id="paint1_linear_143_501" x1="75.4457" y1="228.487" x2="332.289" y2="228.487" gradientUnits="userSpaceOnUse">
<stop stop-color="white"/>
<stop offset="0.111335" stop-color="white"/>
<stop offset="0.181335" stop-color="#788DFF"/>
<stop offset="0.376335" stop-color="#001BAC"/>
<stop offset="0.761335" stop-color="#0022D2"/>
<stop offset="0.881335" stop-color="#FF0000"/>
</linearGradient>
</defs>
</svg>
