<svg width="730" height="372" viewBox="0 0 730 372" fill="none" xmlns="http://www.w3.org/2000/svg">
<path d="M662.936 318.717C683.23 298.423 697.051 272.567 702.65 244.419C708.249 216.27 705.375 187.094 694.392 160.578C683.409 134.063 664.81 111.4 640.947 95.4553C617.084 79.5105 589.028 71 560.328 71C531.629 71 503.573 79.5105 479.71 95.4553C455.847 111.4 437.248 134.063 426.265 160.578C415.282 187.094 412.408 216.27 418.007 244.419C423.606 272.567 437.427 298.423 457.721 318.717" stroke="#3F4140" stroke-width="2"/>
<g filter="url(#filter0_i_143_501)">
<path d="M657.806 314.3C677.085 294.962 690.214 270.325 695.533 243.503C700.853 216.68 698.123 188.879 687.689 163.613C677.255 138.347 659.586 116.752 636.916 101.558C614.246 86.3649 587.593 78.2554 560.328 78.2554C533.064 78.2554 506.411 86.3649 483.741 101.558C461.071 116.752 443.402 138.347 432.968 163.613C422.534 188.879 419.804 216.68 425.123 243.503C430.442 270.325 443.572 294.962 462.851 314.3" stroke="#1B1A1D" stroke-width="20"/>
</g>
<path d="M653.871 310.431C672.417 291.886 685.046 268.258 690.163 242.535C695.279 216.812 692.653 190.15 682.617 165.919C672.58 141.689 655.584 120.979 633.777 106.408C611.97 91.8372 586.332 84.0601 560.106 84.0601C533.879 84.0601 508.241 91.8372 486.434 106.408C464.627 120.979 447.631 141.689 437.595 165.919C427.558 190.15 424.932 216.812 430.049 242.535C435.165 268.258 447.795 291.886 466.34 310.431" stroke="#A07A56" stroke-width="2"/>
<path d="M650.895 306.561C668.855 288.69 681.086 265.92 686.041 241.132C690.996 216.343 688.453 190.649 678.733 167.299C669.013 143.949 652.553 123.991 631.434 109.95C610.315 95.9082 585.486 88.4136 560.087 88.4136C534.687 88.4136 509.858 95.9082 488.739 109.95C467.62 123.991 451.16 143.949 441.44 167.299C431.72 190.649 429.177 216.343 434.132 241.132C439.088 265.92 451.319 288.69 469.279 306.561" stroke="#334ABD" stroke-opacity="0.5" stroke-width="16"/>
<g filter="url(#filter1_i_143_501)">
<path d="M605.474 264C614.424 255.07 620.52 243.693 622.989 231.307C625.459 218.922 624.191 206.083 619.347 194.416C614.503 182.749 606.3 172.777 595.775 165.761C585.251 158.745 572.877 155 560.219 155C547.561 155 535.187 158.745 524.663 165.761C514.138 172.777 505.935 182.749 501.091 194.416C496.247 206.083 494.979 218.922 497.449 231.307C499.918 243.693 506.014 255.07 514.964 264" stroke="#1B1A1D" stroke-width="13"/>
</g>
<rect x="556.91" y="77.2881" width="2.90219" height="5.80438" fill="white"/>
<rect x="632.651" y="98.0874" width="2.90219" height="5.80438" transform="rotate(32.9096 632.651 98.0874)" fill="white"/>
<rect width="2.90219" height="5.80438" transform="matrix(-0.839529 0.543315 0.543316 0.839528 484.224 100.571)" fill="white"/>
<rect width="2.41849" height="5.6656" transform="matrix(-0.958036 0.286648 0.286648 0.958036 521.113 83.5762)" fill="#AA3333"/>
<rect width="2.41849" height="5.6656" transform="matrix(-0.638497 0.769624 0.769624 0.638497 453.91 127.723)" fill="#515253"/>
<rect width="2.41849" height="5.6656" transform="matrix(-0.122382 0.992483 0.992483 0.122382 422.771 200.245)" fill="#AA3333"/>
<rect width="2.41849" height="5.85679" transform="matrix(0.355455 0.934693 0.934693 -0.355455 436.214 278.01)" fill="#515253"/>
<rect x="685.543" y="157.931" width="2.90219" height="5.80438" transform="rotate(66.2703 685.543 157.931)" fill="white"/>
<rect width="2.90219" height="5.80438" transform="matrix(-0.402423 0.915454 0.915454 0.402422 432.332 162.415)" fill="white"/>
<rect x="698.368" y="230.143" width="2.90219" height="5.80438" transform="rotate(93.97 698.368 230.143)" fill="white"/>
<path d="M423 240.402L423.201 243.297L428.992 242.895L428.791 240L423 240.402Z" fill="white"/>
<rect x="668.49" y="304.054" width="2.90219" height="5.80438" transform="rotate(133.082 668.49 304.054)" fill="white"/>
<rect width="2.90219" height="5.80438" transform="matrix(0.683044 0.730377 0.730377 -0.683044 457.385 310.538)" fill="white"/>
<path d="M600.034 83.8057L597.725 83.0861L596.04 88.4951L598.348 89.2147L600.034 83.8057Z" fill="#515253"/>
<path d="M665.77 125.975L664.155 124.174L659.938 127.957L661.553 129.757L665.77 125.975Z" fill="#515253"/>
<rect width="2.41849" height="5.6656" transform="matrix(-0.167435 -0.985883 -0.985883 0.167435 697.21 196.384)" fill="#515253"/>
<rect width="2.41849" height="5.6656" transform="matrix(0.403264 -0.915084 -0.915084 -0.403264 687.404 270.498)" fill="#515253"/>
<path d="M483.348 291.613C483.348 290.811 483.321 290.15 483.266 289.631C483.211 289.111 483.109 288.701 482.958 288.4C482.812 288.1 482.598 287.881 482.316 287.744C482.038 287.603 481.675 287.514 481.229 287.478C480.782 287.437 480.233 287.416 479.581 287.416H478.173C477.521 287.416 476.972 287.437 476.526 287.478C476.079 287.514 475.714 287.603 475.432 287.744C475.154 287.881 474.94 288.1 474.789 288.4C474.643 288.701 474.543 289.111 474.489 289.631C474.434 290.15 474.406 290.811 474.406 291.613V291.887C474.406 292.661 474.434 293.304 474.489 293.814C474.543 294.325 474.643 294.733 474.789 295.038C474.94 295.343 475.154 295.571 475.432 295.722C475.714 295.872 476.079 295.97 476.526 296.016C476.972 296.061 477.521 296.084 478.173 296.084H479.581C480.233 296.084 480.782 296.061 481.229 296.016C481.675 295.97 482.038 295.872 482.316 295.722C482.598 295.571 482.812 295.343 482.958 295.038C483.109 294.733 483.211 294.325 483.266 293.814C483.321 293.304 483.348 292.661 483.348 291.887V291.613ZM473.094 291.887V291.613C473.094 290.684 473.14 289.904 473.231 289.275C473.322 288.642 473.479 288.127 473.702 287.73C473.926 287.334 474.229 287.031 474.612 286.821C474.999 286.612 475.484 286.47 476.068 286.397C476.651 286.32 477.353 286.281 478.173 286.281H479.581C480.402 286.281 481.103 286.32 481.687 286.397C482.27 286.47 482.753 286.612 483.136 286.821C483.523 287.031 483.829 287.334 484.052 287.73C484.275 288.127 484.433 288.642 484.524 289.275C484.615 289.904 484.66 290.684 484.66 291.613V291.887C484.66 293.012 484.585 293.926 484.435 294.628C484.289 295.33 484.029 295.868 483.656 296.241C483.286 296.615 482.771 296.87 482.111 297.007C481.45 297.148 480.607 297.219 479.581 297.219H478.173C477.148 297.219 476.305 297.148 475.644 297.007C474.983 296.87 474.466 296.615 474.092 296.241C473.723 295.868 473.463 295.33 473.313 294.628C473.167 293.926 473.094 293.012 473.094 291.887Z" fill="white"/>
<path d="M446.135 241.464C446.135 240.853 446.192 240.34 446.306 239.926C446.42 239.511 446.638 239.178 446.962 238.928C447.285 238.677 447.755 238.497 448.37 238.388C448.99 238.274 449.801 238.215 450.804 238.21H453.251C453.962 238.21 454.516 238.187 454.912 238.142C455.313 238.091 455.605 238 455.787 237.868C455.969 237.731 456.081 237.535 456.122 237.28C456.168 237.021 456.19 236.681 456.19 236.262C456.19 235.824 456.149 235.48 456.067 235.229C455.985 234.979 455.824 234.797 455.582 234.683C455.34 234.569 454.983 234.496 454.509 234.464C454.039 234.432 453.415 234.416 452.636 234.416H451.146C450.33 234.416 449.676 234.432 449.184 234.464C448.696 234.496 448.327 234.569 448.076 234.683C447.826 234.797 447.657 234.979 447.57 235.229C447.488 235.48 447.447 235.824 447.447 236.262H446.135C446.135 235.665 446.201 235.173 446.333 234.785C446.47 234.398 446.714 234.095 447.064 233.876C447.42 233.657 447.921 233.505 448.568 233.418C449.215 233.327 450.052 233.281 451.077 233.281H452.704C453.693 233.281 454.502 233.327 455.131 233.418C455.76 233.505 456.245 233.657 456.587 233.876C456.933 234.095 457.173 234.398 457.305 234.785C457.437 235.173 457.503 235.665 457.503 236.262C457.503 237.027 457.4 237.633 457.195 238.08C456.995 238.522 456.639 238.839 456.129 239.03C455.623 239.217 454.908 239.311 453.982 239.311H450.975C450.159 239.311 449.514 239.338 449.04 239.393C448.566 239.447 448.215 239.552 447.987 239.707C447.759 239.857 447.611 240.074 447.543 240.356C447.479 240.639 447.447 241.008 447.447 241.464V242.906H457.086V244H446.135V241.464ZM469.445 238.613C469.445 237.811 469.418 237.15 469.363 236.631C469.309 236.111 469.206 235.701 469.056 235.4C468.91 235.1 468.696 234.881 468.413 234.744C468.135 234.603 467.773 234.514 467.326 234.478C466.88 234.437 466.33 234.416 465.679 234.416H464.271C463.619 234.416 463.07 234.437 462.623 234.478C462.176 234.514 461.812 234.603 461.529 234.744C461.251 234.881 461.037 235.1 460.887 235.4C460.741 235.701 460.641 236.111 460.586 236.631C460.531 237.15 460.504 237.811 460.504 238.613V238.887C460.504 239.661 460.531 240.304 460.586 240.814C460.641 241.325 460.741 241.733 460.887 242.038C461.037 242.343 461.251 242.571 461.529 242.722C461.812 242.872 462.176 242.97 462.623 243.016C463.07 243.061 463.619 243.084 464.271 243.084H465.679C466.33 243.084 466.88 243.061 467.326 243.016C467.773 242.97 468.135 242.872 468.413 242.722C468.696 242.571 468.91 242.343 469.056 242.038C469.206 241.733 469.309 241.325 469.363 240.814C469.418 240.304 469.445 239.661 469.445 238.887V238.613ZM459.191 238.887V238.613C459.191 237.684 459.237 236.904 459.328 236.275C459.419 235.642 459.576 235.127 459.8 234.73C460.023 234.334 460.326 234.031 460.709 233.821C461.096 233.612 461.582 233.47 462.165 233.397C462.748 233.32 463.45 233.281 464.271 233.281H465.679C466.499 233.281 467.201 233.32 467.784 233.397C468.368 233.47 468.851 233.612 469.233 233.821C469.621 234.031 469.926 234.334 470.149 234.73C470.373 235.127 470.53 235.642 470.621 236.275C470.712 236.904 470.758 237.684 470.758 238.613V238.887C470.758 240.012 470.683 240.926 470.532 241.628C470.386 242.33 470.127 242.868 469.753 243.241C469.384 243.615 468.869 243.87 468.208 244.007C467.547 244.148 466.704 244.219 465.679 244.219H464.271C463.245 244.219 462.402 244.148 461.741 244.007C461.08 243.87 460.563 243.615 460.189 243.241C459.82 242.868 459.561 242.33 459.41 241.628C459.264 240.926 459.191 240.012 459.191 238.887Z" fill="white"/>
<path d="M460.281 178V175.812H451.094V174.5L459.844 167.5H461.594V174.719H463.344V175.812H461.594V178H460.281ZM452.406 174.719H460.281V168.375L452.406 174.719ZM475.348 172.613C475.348 171.811 475.321 171.15 475.266 170.631C475.211 170.111 475.109 169.701 474.958 169.4C474.812 169.1 474.598 168.881 474.316 168.744C474.038 168.603 473.675 168.514 473.229 168.478C472.782 168.437 472.233 168.416 471.581 168.416H470.173C469.521 168.416 468.972 168.437 468.526 168.478C468.079 168.514 467.714 168.603 467.432 168.744C467.154 168.881 466.94 169.1 466.789 169.4C466.643 169.701 466.543 170.111 466.489 170.631C466.434 171.15 466.406 171.811 466.406 172.613V172.887C466.406 173.661 466.434 174.304 466.489 174.814C466.543 175.325 466.643 175.733 466.789 176.038C466.94 176.343 467.154 176.571 467.432 176.722C467.714 176.872 468.079 176.97 468.526 177.016C468.972 177.061 469.521 177.084 470.173 177.084H471.581C472.233 177.084 472.782 177.061 473.229 177.016C473.675 176.97 474.038 176.872 474.316 176.722C474.598 176.571 474.812 176.343 474.958 176.038C475.109 175.733 475.211 175.325 475.266 174.814C475.321 174.304 475.348 173.661 475.348 172.887V172.613ZM465.094 172.887V172.613C465.094 171.684 465.14 170.904 465.231 170.275C465.322 169.642 465.479 169.127 465.702 168.73C465.926 168.334 466.229 168.031 466.612 167.821C466.999 167.612 467.484 167.47 468.068 167.397C468.651 167.32 469.353 167.281 470.173 167.281H471.581C472.402 167.281 473.103 167.32 473.687 167.397C474.27 167.47 474.753 167.612 475.136 167.821C475.523 168.031 475.829 168.334 476.052 168.73C476.275 169.127 476.433 169.642 476.524 170.275C476.615 170.904 476.66 171.684 476.66 172.613V172.887C476.66 174.012 476.585 174.926 476.435 175.628C476.289 176.33 476.029 176.868 475.656 177.241C475.286 177.615 474.771 177.87 474.111 178.007C473.45 178.148 472.607 178.219 471.581 178.219H470.173C469.148 178.219 468.305 178.148 467.644 178.007C466.983 177.87 466.466 177.615 466.092 177.241C465.723 176.868 465.463 176.33 465.313 175.628C465.167 174.926 465.094 174.012 465.094 172.887Z" fill="white"/>
<path d="M494.05 133.219C493.025 133.219 492.198 133.164 491.569 133.055C490.94 132.945 490.459 132.765 490.126 132.515C489.794 132.264 489.568 131.931 489.449 131.517C489.336 131.097 489.279 130.58 489.279 129.965V125.33C489.279 124.733 489.345 124.239 489.477 123.847C489.614 123.45 489.857 123.138 490.208 122.91C490.564 122.682 491.065 122.521 491.712 122.425C492.359 122.329 493.196 122.281 494.221 122.281H495.848C496.855 122.281 497.669 122.327 498.288 122.418C498.913 122.505 499.389 122.657 499.717 122.876C500.045 123.095 500.266 123.398 500.38 123.785C500.499 124.173 500.558 124.665 500.558 125.262H499.245C499.245 124.824 499.211 124.48 499.143 124.229C499.079 123.979 498.933 123.797 498.705 123.683C498.482 123.569 498.138 123.496 497.673 123.464C497.208 123.432 496.577 123.416 495.78 123.416H494.289C493.474 123.416 492.82 123.437 492.327 123.478C491.84 123.514 491.471 123.594 491.22 123.717C490.969 123.84 490.801 124.031 490.714 124.291C490.632 124.546 490.591 124.893 490.591 125.33V127.723C491.006 127.244 491.76 127.005 492.854 127.005H496.463C497.416 127.005 498.179 127.06 498.753 127.169C499.327 127.274 499.76 127.445 500.052 127.682C500.348 127.914 500.544 128.219 500.64 128.598C500.74 128.971 500.79 129.427 500.79 129.965C500.79 130.58 500.731 131.097 500.613 131.517C500.499 131.931 500.275 132.264 499.943 132.515C499.61 132.765 499.129 132.945 498.5 133.055C497.871 133.164 497.044 133.219 496.019 133.219H494.05ZM499.478 129.965C499.478 129.559 499.446 129.233 499.382 128.987C499.318 128.741 499.175 128.554 498.951 128.427C498.728 128.299 498.382 128.215 497.912 128.174C497.443 128.128 496.8 128.105 495.985 128.105H494.084C493.268 128.105 492.626 128.128 492.156 128.174C491.687 128.215 491.341 128.299 491.117 128.427C490.894 128.554 490.751 128.741 490.687 128.987C490.623 129.233 490.591 129.559 490.591 129.965C490.591 130.421 490.623 130.787 490.687 131.065C490.755 131.343 490.903 131.558 491.131 131.708C491.359 131.854 491.71 131.954 492.184 132.009C492.658 132.059 493.303 132.084 494.118 132.084H495.95C496.766 132.084 497.411 132.059 497.885 132.009C498.359 131.954 498.71 131.854 498.938 131.708C499.166 131.558 499.311 131.343 499.375 131.065C499.444 130.787 499.478 130.421 499.478 129.965ZM512.664 127.613C512.664 126.811 512.637 126.15 512.582 125.631C512.528 125.111 512.425 124.701 512.275 124.4C512.129 124.1 511.915 123.881 511.632 123.744C511.354 123.603 510.992 123.514 510.545 123.478C510.099 123.437 509.549 123.416 508.898 123.416H507.49C506.838 123.416 506.289 123.437 505.842 123.478C505.395 123.514 505.031 123.603 504.748 123.744C504.47 123.881 504.256 124.1 504.106 124.4C503.96 124.701 503.86 125.111 503.805 125.631C503.75 126.15 503.723 126.811 503.723 127.613V127.887C503.723 128.661 503.75 129.304 503.805 129.814C503.86 130.325 503.96 130.733 504.106 131.038C504.256 131.343 504.47 131.571 504.748 131.722C505.031 131.872 505.395 131.97 505.842 132.016C506.289 132.061 506.838 132.084 507.49 132.084H508.898C509.549 132.084 510.099 132.061 510.545 132.016C510.992 131.97 511.354 131.872 511.632 131.722C511.915 131.571 512.129 131.343 512.275 131.038C512.425 130.733 512.528 130.325 512.582 129.814C512.637 129.304 512.664 128.661 512.664 127.887V127.613ZM502.41 127.887V127.613C502.41 126.684 502.456 125.904 502.547 125.275C502.638 124.642 502.795 124.127 503.019 123.73C503.242 123.334 503.545 123.031 503.928 122.821C504.315 122.612 504.801 122.47 505.384 122.397C505.967 122.32 506.669 122.281 507.49 122.281H508.898C509.718 122.281 510.42 122.32 511.003 122.397C511.587 122.47 512.07 122.612 512.452 122.821C512.84 123.031 513.145 123.334 513.368 123.73C513.592 124.127 513.749 124.642 513.84 125.275C513.931 125.904 513.977 126.684 513.977 127.613V127.887C513.977 129.012 513.902 129.926 513.751 130.628C513.605 131.33 513.346 131.868 512.972 132.241C512.603 132.615 512.088 132.87 511.427 133.007C510.766 133.148 509.923 133.219 508.898 133.219H507.49C506.464 133.219 505.621 133.148 504.96 133.007C504.299 132.87 503.782 132.615 503.408 132.241C503.039 131.868 502.78 131.33 502.629 130.628C502.483 129.926 502.41 129.012 502.41 127.887Z" fill="white"/>
<path d="M558.321 105.262C558.321 104.824 558.277 104.48 558.191 104.229C558.109 103.979 557.942 103.797 557.692 103.683C557.441 103.569 557.07 103.496 556.577 103.464C556.09 103.432 555.438 103.416 554.622 103.416H553.132C552.316 103.416 551.662 103.432 551.17 103.464C550.683 103.496 550.313 103.569 550.063 103.683C549.812 103.797 549.643 103.979 549.557 104.229C549.475 104.48 549.434 104.824 549.434 105.262C549.434 105.631 549.463 105.932 549.523 106.164C549.582 106.392 549.714 106.567 549.919 106.69C550.129 106.809 550.45 106.891 550.883 106.937C551.316 106.982 551.906 107.005 552.654 107.005H555.101C555.848 107.005 556.438 106.982 556.871 106.937C557.304 106.891 557.623 106.809 557.828 106.69C558.038 106.567 558.172 106.392 558.232 106.164C558.291 105.932 558.321 105.631 558.321 105.262ZM548.121 109.965C548.121 109.231 548.253 108.668 548.518 108.276C548.782 107.884 549.126 107.645 549.55 107.559C549.131 107.481 548.787 107.256 548.518 106.882C548.253 106.508 548.121 105.968 548.121 105.262C548.121 104.665 548.187 104.173 548.32 103.785C548.456 103.398 548.7 103.095 549.051 102.876C549.406 102.657 549.908 102.505 550.555 102.418C551.202 102.327 552.038 102.281 553.064 102.281H554.691C555.716 102.281 556.552 102.327 557.199 102.418C557.847 102.505 558.346 102.657 558.697 102.876C559.052 103.095 559.296 103.398 559.428 103.785C559.565 104.173 559.633 104.665 559.633 105.262C559.633 105.968 559.499 106.508 559.23 106.882C558.965 107.256 558.624 107.481 558.204 107.559C558.628 107.645 558.972 107.884 559.237 108.276C559.501 108.668 559.633 109.231 559.633 109.965C559.633 110.58 559.574 111.097 559.455 111.517C559.341 111.931 559.118 112.264 558.785 112.515C558.453 112.765 557.972 112.945 557.343 113.055C556.714 113.164 555.887 113.219 554.862 113.219H552.893C551.867 113.219 551.04 113.164 550.411 113.055C549.782 112.945 549.302 112.765 548.969 112.515C548.636 112.264 548.411 111.931 548.292 111.517C548.178 111.097 548.121 110.58 548.121 109.965ZM558.321 109.965C558.321 109.559 558.289 109.233 558.225 108.987C558.161 108.741 558.017 108.554 557.794 108.427C557.571 108.299 557.225 108.215 556.755 108.174C556.286 108.128 555.643 108.105 554.827 108.105H552.927C552.111 108.105 551.469 108.128 550.999 108.174C550.53 108.215 550.184 108.299 549.96 108.427C549.737 108.554 549.593 108.741 549.53 108.987C549.466 109.233 549.434 109.559 549.434 109.965C549.434 110.421 549.466 110.787 549.53 111.065C549.598 111.343 549.746 111.558 549.974 111.708C550.202 111.854 550.553 111.954 551.027 112.009C551.501 112.059 552.145 112.084 552.961 112.084H554.793C555.609 112.084 556.254 112.059 556.728 112.009C557.202 111.954 557.553 111.854 557.781 111.708C558.008 111.558 558.154 111.343 558.218 111.065C558.286 110.787 558.321 110.421 558.321 109.965ZM571.664 107.613C571.664 106.811 571.637 106.15 571.582 105.631C571.528 105.111 571.425 104.701 571.275 104.4C571.129 104.1 570.915 103.881 570.632 103.744C570.354 103.603 569.992 103.514 569.545 103.478C569.099 103.437 568.549 103.416 567.898 103.416H566.49C565.838 103.416 565.289 103.437 564.842 103.478C564.395 103.514 564.031 103.603 563.748 103.744C563.47 103.881 563.256 104.1 563.106 104.4C562.96 104.701 562.86 105.111 562.805 105.631C562.75 106.15 562.723 106.811 562.723 107.613V107.887C562.723 108.661 562.75 109.304 562.805 109.814C562.86 110.325 562.96 110.733 563.106 111.038C563.256 111.343 563.47 111.571 563.748 111.722C564.031 111.872 564.395 111.97 564.842 112.016C565.289 112.061 565.838 112.084 566.49 112.084H567.898C568.549 112.084 569.099 112.061 569.545 112.016C569.992 111.97 570.354 111.872 570.632 111.722C570.915 111.571 571.129 111.343 571.275 111.038C571.425 110.733 571.528 110.325 571.582 109.814C571.637 109.304 571.664 108.661 571.664 107.887V107.613ZM561.41 107.887V107.613C561.41 106.684 561.456 105.904 561.547 105.275C561.638 104.642 561.795 104.127 562.019 103.73C562.242 103.334 562.545 103.031 562.928 102.821C563.315 102.612 563.801 102.47 564.384 102.397C564.967 102.32 565.669 102.281 566.49 102.281H567.898C568.718 102.281 569.42 102.32 570.003 102.397C570.587 102.47 571.07 102.612 571.452 102.821C571.84 103.031 572.145 103.334 572.368 103.73C572.592 104.127 572.749 104.642 572.84 105.275C572.931 105.904 572.977 106.684 572.977 107.613V107.887C572.977 109.012 572.902 109.926 572.751 110.628C572.605 111.33 572.346 111.868 571.972 112.241C571.603 112.615 571.088 112.87 570.427 113.007C569.766 113.148 568.923 113.219 567.898 113.219H566.49C565.464 113.219 564.621 113.148 563.96 113.007C563.299 112.87 562.782 112.615 562.408 112.241C562.039 111.868 561.78 111.33 561.629 110.628C561.483 109.926 561.41 109.012 561.41 107.887Z" fill="white"/>
<path d="M590.871 131V129.906H595.069V121.607L591.152 122.913L590.735 121.901L594.973 120.5H596.381V129.906H600.045V131H590.871ZM612.664 125.613C612.664 124.811 612.637 124.15 612.582 123.631C612.528 123.111 612.425 122.701 612.275 122.4C612.129 122.1 611.915 121.881 611.632 121.744C611.354 121.603 610.992 121.514 610.545 121.478C610.099 121.437 609.549 121.416 608.898 121.416H607.49C606.838 121.416 606.289 121.437 605.842 121.478C605.395 121.514 605.031 121.603 604.748 121.744C604.47 121.881 604.256 122.1 604.106 122.4C603.96 122.701 603.86 123.111 603.805 123.631C603.75 124.15 603.723 124.811 603.723 125.613V125.887C603.723 126.661 603.75 127.304 603.805 127.814C603.86 128.325 603.96 128.733 604.106 129.038C604.256 129.343 604.47 129.571 604.748 129.722C605.031 129.872 605.395 129.97 605.842 130.016C606.289 130.061 606.838 130.084 607.49 130.084H608.898C609.549 130.084 610.099 130.061 610.545 130.016C610.992 129.97 611.354 129.872 611.632 129.722C611.915 129.571 612.129 129.343 612.275 129.038C612.425 128.733 612.528 128.325 612.582 127.814C612.637 127.304 612.664 126.661 612.664 125.887V125.613ZM602.41 125.887V125.613C602.41 124.684 602.456 123.904 602.547 123.275C602.638 122.642 602.795 122.127 603.019 121.73C603.242 121.334 603.545 121.031 603.928 120.821C604.315 120.612 604.801 120.47 605.384 120.397C605.967 120.32 606.669 120.281 607.49 120.281H608.898C609.718 120.281 610.42 120.32 611.003 120.397C611.587 120.47 612.07 120.612 612.452 120.821C612.84 121.031 613.145 121.334 613.368 121.73C613.592 122.127 613.749 122.642 613.84 123.275C613.931 123.904 613.977 124.684 613.977 125.613V125.887C613.977 127.012 613.902 127.926 613.751 128.628C613.605 129.33 613.346 129.868 612.972 130.241C612.603 130.615 612.088 130.87 611.427 131.007C610.766 131.148 609.923 131.219 608.898 131.219H607.49C606.464 131.219 605.621 131.148 604.96 131.007C604.299 130.87 603.782 130.615 603.408 130.241C603.039 129.868 602.78 129.33 602.629 128.628C602.483 127.926 602.41 127.012 602.41 125.887ZM625.981 125.613C625.981 124.811 625.953 124.15 625.899 123.631C625.844 123.111 625.741 122.701 625.591 122.4C625.445 122.1 625.231 121.881 624.948 121.744C624.67 121.603 624.308 121.514 623.862 121.478C623.415 121.437 622.866 121.416 622.214 121.416H620.806C620.154 121.416 619.605 121.437 619.158 121.478C618.712 121.514 618.347 121.603 618.065 121.744C617.787 121.881 617.573 122.1 617.422 122.4C617.276 122.701 617.176 123.111 617.121 123.631C617.067 124.15 617.039 124.811 617.039 125.613V125.887C617.039 126.661 617.067 127.304 617.121 127.814C617.176 128.325 617.276 128.733 617.422 129.038C617.573 129.343 617.787 129.571 618.065 129.722C618.347 129.872 618.712 129.97 619.158 130.016C619.605 130.061 620.154 130.084 620.806 130.084H622.214C622.866 130.084 623.415 130.061 623.862 130.016C624.308 129.97 624.67 129.872 624.948 129.722C625.231 129.571 625.445 129.343 625.591 129.038C625.741 128.733 625.844 128.325 625.899 127.814C625.953 127.304 625.981 126.661 625.981 125.887V125.613ZM615.727 125.887V125.613C615.727 124.684 615.772 123.904 615.864 123.275C615.955 122.642 616.112 122.127 616.335 121.73C616.559 121.334 616.862 121.031 617.244 120.821C617.632 120.612 618.117 120.47 618.7 120.397C619.284 120.32 619.986 120.281 620.806 120.281H622.214C623.034 120.281 623.736 120.32 624.32 120.397C624.903 120.47 625.386 120.612 625.769 120.821C626.156 121.031 626.462 121.334 626.685 121.73C626.908 122.127 627.065 122.642 627.156 123.275C627.248 123.904 627.293 124.684 627.293 125.613V125.887C627.293 127.012 627.218 127.926 627.068 128.628C626.922 129.33 626.662 129.868 626.288 130.241C625.919 130.615 625.404 130.87 624.743 131.007C624.083 131.148 623.24 131.219 622.214 131.219H620.806C619.781 131.219 618.937 131.148 618.277 131.007C617.616 130.87 617.099 130.615 616.725 130.241C616.356 129.868 616.096 129.33 615.946 128.628C615.8 127.926 615.727 127.012 615.727 125.887Z" fill="white"/>
<path d="M631.871 179V177.906H636.069V169.607L632.152 170.913L631.735 169.901L635.973 168.5H637.381V177.906H641.045V179H631.871ZM643.67 176.464C643.67 175.853 643.727 175.34 643.841 174.926C643.955 174.511 644.174 174.178 644.497 173.928C644.821 173.677 645.29 173.497 645.906 173.388C646.525 173.274 647.337 173.215 648.339 173.21H650.786C651.497 173.21 652.051 173.187 652.448 173.142C652.849 173.091 653.14 173 653.323 172.868C653.505 172.731 653.616 172.535 653.657 172.28C653.703 172.021 653.726 171.681 653.726 171.262C653.726 170.824 653.685 170.48 653.603 170.229C653.521 169.979 653.359 169.797 653.117 169.683C652.876 169.569 652.518 169.496 652.044 169.464C651.575 169.432 650.95 169.416 650.171 169.416H648.681C647.865 169.416 647.211 169.432 646.719 169.464C646.231 169.496 645.862 169.569 645.612 169.683C645.361 169.797 645.192 169.979 645.106 170.229C645.024 170.48 644.983 170.824 644.983 171.262H643.67C643.67 170.665 643.736 170.173 643.868 169.785C644.005 169.398 644.249 169.095 644.6 168.876C644.955 168.657 645.457 168.505 646.104 168.418C646.751 168.327 647.587 168.281 648.613 168.281H650.24C651.228 168.281 652.037 168.327 652.666 168.418C653.295 168.505 653.781 168.657 654.122 168.876C654.469 169.095 654.708 169.398 654.84 169.785C654.972 170.173 655.038 170.665 655.038 171.262C655.038 172.027 654.936 172.633 654.731 173.08C654.53 173.522 654.175 173.839 653.664 174.03C653.158 174.217 652.443 174.311 651.518 174.311H648.51C647.694 174.311 647.049 174.338 646.575 174.393C646.101 174.447 645.751 174.552 645.523 174.707C645.295 174.857 645.147 175.074 645.078 175.356C645.015 175.639 644.983 176.008 644.983 176.464V177.906H654.621V179H643.67V176.464ZM666.981 173.613C666.981 172.811 666.953 172.15 666.899 171.631C666.844 171.111 666.741 170.701 666.591 170.4C666.445 170.1 666.231 169.881 665.948 169.744C665.67 169.603 665.308 169.514 664.862 169.478C664.415 169.437 663.866 169.416 663.214 169.416H661.806C661.154 169.416 660.605 169.437 660.158 169.478C659.712 169.514 659.347 169.603 659.065 169.744C658.787 169.881 658.573 170.1 658.422 170.4C658.276 170.701 658.176 171.111 658.121 171.631C658.067 172.15 658.039 172.811 658.039 173.613V173.887C658.039 174.661 658.067 175.304 658.121 175.814C658.176 176.325 658.276 176.733 658.422 177.038C658.573 177.343 658.787 177.571 659.065 177.722C659.347 177.872 659.712 177.97 660.158 178.016C660.605 178.061 661.154 178.084 661.806 178.084H663.214C663.866 178.084 664.415 178.061 664.862 178.016C665.308 177.97 665.67 177.872 665.948 177.722C666.231 177.571 666.445 177.343 666.591 177.038C666.741 176.733 666.844 176.325 666.899 175.814C666.953 175.304 666.981 174.661 666.981 173.887V173.613ZM656.727 173.887V173.613C656.727 172.684 656.772 171.904 656.864 171.275C656.955 170.642 657.112 170.127 657.335 169.73C657.559 169.334 657.862 169.031 658.244 168.821C658.632 168.612 659.117 168.47 659.7 168.397C660.284 168.32 660.986 168.281 661.806 168.281H663.214C664.034 168.281 664.736 168.32 665.32 168.397C665.903 168.47 666.386 168.612 666.769 168.821C667.156 169.031 667.462 169.334 667.685 169.73C667.908 170.127 668.065 170.642 668.156 171.275C668.248 171.904 668.293 172.684 668.293 173.613V173.887C668.293 175.012 668.218 175.926 668.068 176.628C667.922 177.33 667.662 177.868 667.288 178.241C666.919 178.615 666.404 178.87 665.743 179.007C665.083 179.148 664.24 179.219 663.214 179.219H661.806C660.781 179.219 659.937 179.148 659.277 179.007C658.616 178.87 658.099 178.615 657.725 178.241C657.356 177.868 657.096 177.33 656.946 176.628C656.8 175.926 656.727 175.012 656.727 173.887Z" fill="white"/>
<path d="M637.871 236V234.906H642.069V226.607L638.152 227.913L637.735 226.901L641.973 225.5H643.381V234.906H647.045V236H637.871ZM658.598 236V233.812H649.41V232.5L658.16 225.5H659.91V232.719H661.66V233.812H659.91V236H658.598ZM650.723 232.719H658.598V226.375L650.723 232.719ZM673.664 230.613C673.664 229.811 673.637 229.15 673.582 228.631C673.528 228.111 673.425 227.701 673.275 227.4C673.129 227.1 672.915 226.881 672.632 226.744C672.354 226.603 671.992 226.514 671.545 226.478C671.099 226.437 670.549 226.416 669.898 226.416H668.49C667.838 226.416 667.289 226.437 666.842 226.478C666.395 226.514 666.031 226.603 665.748 226.744C665.47 226.881 665.256 227.1 665.106 227.4C664.96 227.701 664.86 228.111 664.805 228.631C664.75 229.15 664.723 229.811 664.723 230.613V230.887C664.723 231.661 664.75 232.304 664.805 232.814C664.86 233.325 664.96 233.733 665.106 234.038C665.256 234.343 665.47 234.571 665.748 234.722C666.031 234.872 666.395 234.97 666.842 235.016C667.289 235.061 667.838 235.084 668.49 235.084H669.898C670.549 235.084 671.099 235.061 671.545 235.016C671.992 234.97 672.354 234.872 672.632 234.722C672.915 234.571 673.129 234.343 673.275 234.038C673.425 233.733 673.528 233.325 673.582 232.814C673.637 232.304 673.664 231.661 673.664 230.887V230.613ZM663.41 230.887V230.613C663.41 229.684 663.456 228.904 663.547 228.275C663.638 227.642 663.795 227.127 664.019 226.73C664.242 226.334 664.545 226.031 664.928 225.821C665.315 225.612 665.801 225.47 666.384 225.397C666.967 225.32 667.669 225.281 668.49 225.281H669.898C670.718 225.281 671.42 225.32 672.003 225.397C672.587 225.47 673.07 225.612 673.452 225.821C673.84 226.031 674.145 226.334 674.368 226.73C674.592 227.127 674.749 227.642 674.84 228.275C674.931 228.904 674.977 229.684 674.977 230.613V230.887C674.977 232.012 674.902 232.926 674.751 233.628C674.605 234.33 674.346 234.868 673.972 235.241C673.603 235.615 673.088 235.87 672.427 236.007C671.766 236.148 670.923 236.219 669.898 236.219H668.49C667.464 236.219 666.621 236.148 665.96 236.007C665.299 235.87 664.782 235.615 664.408 235.241C664.039 234.868 663.78 234.33 663.629 233.628C663.483 232.926 663.41 232.012 663.41 230.887Z" fill="white"/>
<path d="M616.871 289V287.906H621.069V279.607L617.152 280.913L616.735 279.901L620.973 278.5H622.381V287.906H626.045V289H616.871ZM633.366 289.219C632.341 289.219 631.514 289.164 630.885 289.055C630.256 288.945 629.775 288.765 629.443 288.515C629.11 288.264 628.884 287.931 628.766 287.517C628.652 287.097 628.595 286.58 628.595 285.965V281.33C628.595 280.733 628.661 280.239 628.793 279.847C628.93 279.45 629.174 279.138 629.525 278.91C629.88 278.682 630.381 278.521 631.029 278.425C631.676 278.329 632.512 278.281 633.537 278.281H635.164C636.171 278.281 636.985 278.327 637.605 278.418C638.229 278.505 638.705 278.657 639.033 278.876C639.362 279.095 639.583 279.398 639.697 279.785C639.815 280.173 639.874 280.665 639.874 281.262H638.562C638.562 280.824 638.528 280.48 638.459 280.229C638.395 279.979 638.25 279.797 638.022 279.683C637.798 279.569 637.454 279.496 636.99 279.464C636.525 279.432 635.893 279.416 635.096 279.416H633.606C632.79 279.416 632.136 279.437 631.644 279.478C631.156 279.514 630.787 279.594 630.536 279.717C630.286 279.84 630.117 280.031 630.031 280.291C629.948 280.546 629.907 280.893 629.907 281.33V283.723C630.322 283.244 631.076 283.005 632.17 283.005H635.78C636.732 283.005 637.495 283.06 638.07 283.169C638.644 283.274 639.077 283.445 639.368 283.682C639.665 283.914 639.861 284.219 639.956 284.598C640.057 284.971 640.107 285.427 640.107 285.965C640.107 286.58 640.047 287.097 639.929 287.517C639.815 287.931 639.592 288.264 639.259 288.515C638.926 288.765 638.446 288.945 637.817 289.055C637.188 289.164 636.361 289.219 635.335 289.219H633.366ZM638.794 285.965C638.794 285.559 638.762 285.233 638.698 284.987C638.635 284.741 638.491 284.554 638.268 284.427C638.045 284.299 637.698 284.215 637.229 284.174C636.759 284.128 636.117 284.105 635.301 284.105H633.401C632.585 284.105 631.942 284.128 631.473 284.174C631.003 284.215 630.657 284.299 630.434 284.427C630.211 284.554 630.067 284.741 630.003 284.987C629.939 285.233 629.907 285.559 629.907 285.965C629.907 286.421 629.939 286.787 630.003 287.065C630.072 287.343 630.22 287.558 630.448 287.708C630.675 287.854 631.026 287.954 631.5 288.009C631.974 288.059 632.619 288.084 633.435 288.084H635.267C636.083 288.084 636.727 288.059 637.201 288.009C637.675 287.954 638.026 287.854 638.254 287.708C638.482 287.558 638.628 287.343 638.692 287.065C638.76 286.787 638.794 286.421 638.794 285.965ZM651.981 283.613C651.981 282.811 651.953 282.15 651.899 281.631C651.844 281.111 651.741 280.701 651.591 280.4C651.445 280.1 651.231 279.881 650.948 279.744C650.67 279.603 650.308 279.514 649.862 279.478C649.415 279.437 648.866 279.416 648.214 279.416H646.806C646.154 279.416 645.605 279.437 645.158 279.478C644.712 279.514 644.347 279.603 644.065 279.744C643.787 279.881 643.573 280.1 643.422 280.4C643.276 280.701 643.176 281.111 643.121 281.631C643.067 282.15 643.039 282.811 643.039 283.613V283.887C643.039 284.661 643.067 285.304 643.121 285.814C643.176 286.325 643.276 286.733 643.422 287.038C643.573 287.343 643.787 287.571 644.065 287.722C644.347 287.872 644.712 287.97 645.158 288.016C645.605 288.061 646.154 288.084 646.806 288.084H648.214C648.866 288.084 649.415 288.061 649.862 288.016C650.308 287.97 650.67 287.872 650.948 287.722C651.231 287.571 651.445 287.343 651.591 287.038C651.741 286.733 651.844 286.325 651.899 285.814C651.953 285.304 651.981 284.661 651.981 283.887V283.613ZM641.727 283.887V283.613C641.727 282.684 641.772 281.904 641.864 281.275C641.955 280.642 642.112 280.127 642.335 279.73C642.559 279.334 642.862 279.031 643.244 278.821C643.632 278.612 644.117 278.47 644.7 278.397C645.284 278.32 645.986 278.281 646.806 278.281H648.214C649.034 278.281 649.736 278.32 650.32 278.397C650.903 278.47 651.386 278.612 651.769 278.821C652.156 279.031 652.462 279.334 652.685 279.73C652.908 280.127 653.065 280.642 653.156 281.275C653.248 281.904 653.293 282.684 653.293 283.613V283.887C653.293 285.012 653.218 285.926 653.068 286.628C652.922 287.33 652.662 287.868 652.288 288.241C651.919 288.615 651.404 288.87 650.743 289.007C650.083 289.148 649.24 289.219 648.214 289.219H646.806C645.781 289.219 644.937 289.148 644.277 289.007C643.616 288.87 643.099 288.615 642.725 288.241C642.356 287.868 642.096 287.33 641.946 286.628C641.8 285.926 641.727 285.012 641.727 283.887Z" fill="white"/>
<path d="M267.717 318.717C288.011 298.423 301.832 272.567 307.431 244.419C313.03 216.27 310.156 187.094 299.173 160.578C288.19 134.063 269.591 111.4 245.728 95.4553C221.865 79.5105 193.809 71 165.109 71C136.41 71 108.354 79.5105 84.491 95.4553C60.6279 111.4 42.0289 134.063 31.0459 160.578C20.0629 187.094 17.1892 216.27 22.7883 244.419C28.3874 272.567 42.2077 298.423 62.5016 318.717" stroke="#3F4140" stroke-width="2"/>
<g filter="url(#filter2_i_143_501)">
<path d="M262.587 314.3C281.866 294.962 294.995 270.325 300.315 243.503C305.634 216.68 302.904 188.879 292.47 163.613C282.036 138.347 264.367 116.752 241.697 101.558C219.027 86.3649 192.374 78.2554 165.109 78.2554C137.845 78.2554 111.192 86.3649 88.5219 101.558C65.852 116.752 48.1829 138.347 37.7491 163.613C27.3152 188.879 24.5853 216.68 29.9044 243.503C35.2235 270.325 48.3528 294.962 67.632 314.3" stroke="#1B1A1D" stroke-width="20"/>
</g>
<path d="M258.652 310.43C277.197 291.885 289.827 268.257 294.943 242.534C300.06 216.812 297.434 190.149 287.397 165.919C277.361 141.688 260.365 120.978 238.558 106.408C216.751 91.8367 191.113 84.0596 164.887 84.0596C138.66 84.0596 113.022 91.8367 91.2152 106.408C69.4084 120.978 52.4121 141.688 42.3756 165.919C32.339 190.149 29.713 216.812 34.8296 242.534C39.9462 268.257 52.5756 291.885 71.1207 310.43" stroke="#A07A56" stroke-width="2"/>
<path d="M255.675 306.561C273.636 288.689 285.867 265.92 290.822 241.131C295.777 216.343 293.234 190.649 283.514 167.299C273.794 143.949 257.334 123.991 236.215 109.949C215.096 95.9077 190.267 88.4131 164.868 88.4131C139.468 88.4131 114.639 95.9077 93.5203 109.949C72.4014 123.991 55.9413 143.949 46.2213 167.299C36.5014 190.649 33.9582 216.343 38.9134 241.131C43.8686 265.92 56.0996 288.689 74.0597 306.561" stroke="url(#paint0_linear_143_501)" stroke-opacity="0.5" stroke-width="16"/>
<g filter="url(#filter3_i_143_501)">
<path d="M210.255 264C219.205 255.07 225.301 243.693 227.77 231.307C230.24 218.922 228.972 206.083 224.128 194.416C219.284 182.749 211.081 172.777 200.556 165.761C190.032 158.745 177.658 155 165 155C152.342 155 139.968 158.745 129.444 165.761C118.919 172.777 110.716 182.749 105.872 194.416C101.028 206.083 99.7603 218.922 102.23 231.307C104.699 243.693 110.795 255.07 119.745 264" stroke="#1B1A1D" stroke-width="13"/>
</g>
<rect x="162.691" y="77.2881" width="2.90219" height="5.80438" fill="white"/>
<rect x="291.324" y="159.931" width="2.90219" height="5.80438" transform="rotate(66.2703 291.324 159.931)" fill="white"/>
<rect width="2.90219" height="5.80438" transform="matrix(-0.402423 0.915454 0.915454 0.402422 38.1131 160.415)" fill="white"/>
<rect x="267.271" y="310.054" width="2.90219" height="5.80438" transform="rotate(133.082 267.271 310.054)" fill="white"/>
<rect width="2.90219" height="5.80438" transform="matrix(0.683044 0.730377 0.730377 -0.683044 62.1656 310.538)" fill="white"/>
<path d="M91.1289 285.613C91.1289 284.811 91.1016 284.15 91.0469 283.631C90.9922 283.111 90.8896 282.701 90.7393 282.4C90.5934 282.1 90.3792 281.881 90.0967 281.744C89.8187 281.603 89.4564 281.514 89.0098 281.478C88.5632 281.437 88.014 281.416 87.3623 281.416H85.9541C85.3024 281.416 84.7533 281.437 84.3066 281.478C83.86 281.514 83.4954 281.603 83.2129 281.744C82.9349 281.881 82.7207 282.1 82.5703 282.4C82.4245 282.701 82.3242 283.111 82.2695 283.631C82.2148 284.15 82.1875 284.811 82.1875 285.613V285.887C82.1875 286.661 82.2148 287.304 82.2695 287.814C82.3242 288.325 82.4245 288.733 82.5703 289.038C82.7207 289.343 82.9349 289.571 83.2129 289.722C83.4954 289.872 83.86 289.97 84.3066 290.016C84.7533 290.061 85.3024 290.084 85.9541 290.084H87.3623C88.014 290.084 88.5632 290.061 89.0098 290.016C89.4564 289.97 89.8187 289.872 90.0967 289.722C90.3792 289.571 90.5934 289.343 90.7393 289.038C90.8896 288.733 90.9922 288.325 91.0469 287.814C91.1016 287.304 91.1289 286.661 91.1289 285.887V285.613ZM80.875 285.887V285.613C80.875 284.684 80.9206 283.904 81.0117 283.275C81.1029 282.642 81.2601 282.127 81.4834 281.73C81.7067 281.334 82.0098 281.031 82.3926 280.821C82.7799 280.612 83.2653 280.47 83.8486 280.397C84.432 280.32 85.1338 280.281 85.9541 280.281H87.3623C88.1826 280.281 88.8844 280.32 89.4678 280.397C90.0511 280.47 90.5342 280.612 90.917 280.821C91.3044 281.031 91.6097 281.334 91.833 281.73C92.0563 282.127 92.2135 282.642 92.3047 283.275C92.3958 283.904 92.4414 284.684 92.4414 285.613V285.887C92.4414 287.012 92.3662 287.926 92.2158 288.628C92.07 289.33 91.8102 289.868 91.4365 290.241C91.0674 290.615 90.5524 290.87 89.8916 291.007C89.2308 291.148 88.3877 291.219 87.3623 291.219H85.9541C84.9287 291.219 84.0856 291.148 83.4248 291.007C82.764 290.87 82.2467 290.615 81.873 290.241C81.5039 289.868 81.2441 289.33 81.0938 288.628C80.9479 287.926 80.875 287.012 80.875 285.887Z" fill="white"/>
<path d="M62.1348 177.464C62.1348 176.853 62.1917 176.34 62.3057 175.926C62.4196 175.511 62.6383 175.178 62.9619 174.928C63.2855 174.677 63.7549 174.497 64.3701 174.388C64.9899 174.274 65.8011 174.215 66.8037 174.21H69.251C69.9619 174.21 70.5156 174.187 70.9121 174.142C71.3132 174.091 71.6048 174 71.7871 173.868C71.9694 173.731 72.0811 173.535 72.1221 173.28C72.1676 173.021 72.1904 172.681 72.1904 172.262C72.1904 171.824 72.1494 171.48 72.0674 171.229C71.9854 170.979 71.8236 170.797 71.582 170.683C71.3405 170.569 70.9827 170.496 70.5088 170.464C70.0394 170.432 69.415 170.416 68.6357 170.416H67.1455C66.3298 170.416 65.6758 170.432 65.1836 170.464C64.696 170.496 64.3268 170.569 64.0762 170.683C63.8255 170.797 63.6569 170.979 63.5703 171.229C63.4883 171.48 63.4473 171.824 63.4473 172.262H62.1348C62.1348 171.665 62.2008 171.173 62.333 170.785C62.4697 170.398 62.7135 170.095 63.0645 169.876C63.4199 169.657 63.9212 169.505 64.5684 169.418C65.2155 169.327 66.0518 169.281 67.0771 169.281H68.7041C69.693 169.281 70.502 169.327 71.1309 169.418C71.7598 169.505 72.2451 169.657 72.5869 169.876C72.9333 170.095 73.1725 170.398 73.3047 170.785C73.4368 171.173 73.5029 171.665 73.5029 172.262C73.5029 173.027 73.4004 173.633 73.1953 174.08C72.9948 174.522 72.6393 174.839 72.1289 175.03C71.623 175.217 70.9076 175.311 69.9824 175.311H66.9746C66.1589 175.311 65.514 175.338 65.04 175.393C64.5661 175.447 64.2152 175.552 63.9873 175.707C63.7594 175.857 63.6113 176.074 63.543 176.356C63.4792 176.639 63.4473 177.008 63.4473 177.464V178.906H73.0859V180H62.1348V177.464ZM85.4453 174.613C85.4453 173.811 85.418 173.15 85.3633 172.631C85.3086 172.111 85.2061 171.701 85.0557 171.4C84.9098 171.1 84.6956 170.881 84.4131 170.744C84.1351 170.603 83.7728 170.514 83.3262 170.478C82.8796 170.437 82.3304 170.416 81.6787 170.416H80.2705C79.6188 170.416 79.0697 170.437 78.623 170.478C78.1764 170.514 77.8118 170.603 77.5293 170.744C77.2513 170.881 77.0371 171.1 76.8867 171.4C76.7409 171.701 76.6406 172.111 76.5859 172.631C76.5312 173.15 76.5039 173.811 76.5039 174.613V174.887C76.5039 175.661 76.5312 176.304 76.5859 176.814C76.6406 177.325 76.7409 177.733 76.8867 178.038C77.0371 178.343 77.2513 178.571 77.5293 178.722C77.8118 178.872 78.1764 178.97 78.623 179.016C79.0697 179.061 79.6188 179.084 80.2705 179.084H81.6787C82.3304 179.084 82.8796 179.061 83.3262 179.016C83.7728 178.97 84.1351 178.872 84.4131 178.722C84.6956 178.571 84.9098 178.343 85.0557 178.038C85.2061 177.733 85.3086 177.325 85.3633 176.814C85.418 176.304 85.4453 175.661 85.4453 174.887V174.613ZM75.1914 174.887V174.613C75.1914 173.684 75.237 172.904 75.3281 172.275C75.4193 171.642 75.5765 171.127 75.7998 170.73C76.0231 170.334 76.3262 170.031 76.709 169.821C77.0964 169.612 77.5817 169.47 78.165 169.397C78.7484 169.32 79.4502 169.281 80.2705 169.281H81.6787C82.499 169.281 83.2008 169.32 83.7842 169.397C84.3675 169.47 84.8506 169.612 85.2334 169.821C85.6208 170.031 85.9261 170.334 86.1494 170.73C86.3727 171.127 86.5299 171.642 86.6211 172.275C86.7122 172.904 86.7578 173.684 86.7578 174.613V174.887C86.7578 176.012 86.6826 176.926 86.5322 177.628C86.3864 178.33 86.1266 178.868 85.7529 179.241C85.3838 179.615 84.8688 179.87 84.208 180.007C83.5472 180.148 82.7041 180.219 81.6787 180.219H80.2705C79.2451 180.219 78.402 180.148 77.7412 180.007C77.0804 179.87 76.5632 179.615 76.1895 179.241C75.8203 178.868 75.5605 178.33 75.4102 177.628C75.2643 176.926 75.1914 176.012 75.1914 174.887Z" fill="white"/>
<path d="M160.062 118V115.812H150.875V114.5L159.625 107.5H161.375V114.719H163.125V115.812H161.375V118H160.062ZM152.188 114.719H160.062V108.375L152.188 114.719ZM175.129 112.613C175.129 111.811 175.102 111.15 175.047 110.631C174.992 110.111 174.89 109.701 174.739 109.4C174.593 109.1 174.379 108.881 174.097 108.744C173.819 108.603 173.456 108.514 173.01 108.478C172.563 108.437 172.014 108.416 171.362 108.416H169.954C169.302 108.416 168.753 108.437 168.307 108.478C167.86 108.514 167.495 108.603 167.213 108.744C166.935 108.881 166.721 109.1 166.57 109.4C166.424 109.701 166.324 110.111 166.27 110.631C166.215 111.15 166.188 111.811 166.188 112.613V112.887C166.188 113.661 166.215 114.304 166.27 114.814C166.324 115.325 166.424 115.733 166.57 116.038C166.721 116.343 166.935 116.571 167.213 116.722C167.495 116.872 167.86 116.97 168.307 117.016C168.753 117.061 169.302 117.084 169.954 117.084H171.362C172.014 117.084 172.563 117.061 173.01 117.016C173.456 116.97 173.819 116.872 174.097 116.722C174.379 116.571 174.593 116.343 174.739 116.038C174.89 115.733 174.992 115.325 175.047 114.814C175.102 114.304 175.129 113.661 175.129 112.887V112.613ZM164.875 112.887V112.613C164.875 111.684 164.921 110.904 165.012 110.275C165.103 109.642 165.26 109.127 165.483 108.73C165.707 108.334 166.01 108.031 166.393 107.821C166.78 107.612 167.265 107.47 167.849 107.397C168.432 107.32 169.134 107.281 169.954 107.281H171.362C172.183 107.281 172.884 107.32 173.468 107.397C174.051 107.47 174.534 107.612 174.917 107.821C175.304 108.031 175.61 108.334 175.833 108.73C176.056 109.127 176.214 109.642 176.305 110.275C176.396 110.904 176.441 111.684 176.441 112.613V112.887C176.441 114.012 176.366 114.926 176.216 115.628C176.07 116.33 175.81 116.868 175.437 117.241C175.067 117.615 174.552 117.87 173.892 118.007C173.231 118.148 172.388 118.219 171.362 118.219H169.954C168.929 118.219 168.086 118.148 167.425 118.007C166.764 117.87 166.247 117.615 165.873 117.241C165.504 116.868 165.244 116.33 165.094 115.628C164.948 114.926 164.875 114.012 164.875 112.887Z" fill="white"/>
<path d="M244.831 180.219C243.806 180.219 242.979 180.164 242.35 180.055C241.721 179.945 241.24 179.765 240.907 179.515C240.575 179.264 240.349 178.931 240.23 178.517C240.117 178.097 240.06 177.58 240.06 176.965V172.33C240.06 171.733 240.126 171.239 240.258 170.847C240.395 170.45 240.638 170.138 240.989 169.91C241.345 169.682 241.846 169.521 242.493 169.425C243.14 169.329 243.977 169.281 245.002 169.281H246.629C247.636 169.281 248.45 169.327 249.069 169.418C249.694 169.505 250.17 169.657 250.498 169.876C250.826 170.095 251.047 170.398 251.161 170.785C251.28 171.173 251.339 171.665 251.339 172.262H250.026C250.026 171.824 249.992 171.48 249.924 171.229C249.86 170.979 249.714 170.797 249.486 170.683C249.263 170.569 248.919 170.496 248.454 170.464C247.989 170.432 247.358 170.416 246.561 170.416H245.07C244.255 170.416 243.601 170.437 243.108 170.478C242.621 170.514 242.252 170.594 242.001 170.717C241.75 170.84 241.582 171.031 241.495 171.291C241.413 171.546 241.372 171.893 241.372 172.33V174.723C241.787 174.244 242.541 174.005 243.635 174.005H247.244C248.197 174.005 248.96 174.06 249.534 174.169C250.108 174.274 250.541 174.445 250.833 174.682C251.129 174.914 251.325 175.219 251.421 175.598C251.521 175.971 251.571 176.427 251.571 176.965C251.571 177.58 251.512 178.097 251.394 178.517C251.28 178.931 251.056 179.264 250.724 179.515C250.391 179.765 249.91 179.945 249.281 180.055C248.652 180.164 247.825 180.219 246.8 180.219H244.831ZM250.259 176.965C250.259 176.559 250.227 176.233 250.163 175.987C250.099 175.741 249.956 175.554 249.732 175.427C249.509 175.299 249.163 175.215 248.693 175.174C248.224 175.128 247.581 175.105 246.766 175.105H244.865C244.049 175.105 243.407 175.128 242.938 175.174C242.468 175.215 242.122 175.299 241.898 175.427C241.675 175.554 241.532 175.741 241.468 175.987C241.404 176.233 241.372 176.559 241.372 176.965C241.372 177.421 241.404 177.787 241.468 178.065C241.536 178.343 241.684 178.558 241.912 178.708C242.14 178.854 242.491 178.954 242.965 179.009C243.439 179.059 244.084 179.084 244.899 179.084H246.731C247.547 179.084 248.192 179.059 248.666 179.009C249.14 178.954 249.491 178.854 249.719 178.708C249.947 178.558 250.092 178.343 250.156 178.065C250.225 177.787 250.259 177.421 250.259 176.965ZM263.445 174.613C263.445 173.811 263.418 173.15 263.363 172.631C263.309 172.111 263.206 171.701 263.056 171.4C262.91 171.1 262.696 170.881 262.413 170.744C262.135 170.603 261.773 170.514 261.326 170.478C260.88 170.437 260.33 170.416 259.679 170.416H258.271C257.619 170.416 257.07 170.437 256.623 170.478C256.176 170.514 255.812 170.603 255.529 170.744C255.251 170.881 255.037 171.1 254.887 171.4C254.741 171.701 254.641 172.111 254.586 172.631C254.531 173.15 254.504 173.811 254.504 174.613V174.887C254.504 175.661 254.531 176.304 254.586 176.814C254.641 177.325 254.741 177.733 254.887 178.038C255.037 178.343 255.251 178.571 255.529 178.722C255.812 178.872 256.176 178.97 256.623 179.016C257.07 179.061 257.619 179.084 258.271 179.084H259.679C260.33 179.084 260.88 179.061 261.326 179.016C261.773 178.97 262.135 178.872 262.413 178.722C262.696 178.571 262.91 178.343 263.056 178.038C263.206 177.733 263.309 177.325 263.363 176.814C263.418 176.304 263.445 175.661 263.445 174.887V174.613ZM253.191 174.887V174.613C253.191 173.684 253.237 172.904 253.328 172.275C253.419 171.642 253.576 171.127 253.8 170.73C254.023 170.334 254.326 170.031 254.709 169.821C255.096 169.612 255.582 169.47 256.165 169.397C256.748 169.32 257.45 169.281 258.271 169.281H259.679C260.499 169.281 261.201 169.32 261.784 169.397C262.368 169.47 262.851 169.612 263.233 169.821C263.621 170.031 263.926 170.334 264.149 170.73C264.373 171.127 264.53 171.642 264.621 172.275C264.712 172.904 264.758 173.684 264.758 174.613V174.887C264.758 176.012 264.683 176.926 264.532 177.628C264.386 178.33 264.127 178.868 263.753 179.241C263.384 179.615 262.869 179.87 262.208 180.007C261.547 180.148 260.704 180.219 259.679 180.219H258.271C257.245 180.219 256.402 180.148 255.741 180.007C255.08 179.87 254.563 179.615 254.189 179.241C253.82 178.868 253.561 178.33 253.41 177.628C253.264 176.926 253.191 176.012 253.191 174.887Z" fill="white"/>
<path d="M233.102 283.262C233.102 282.824 233.058 282.48 232.972 282.229C232.89 281.979 232.723 281.797 232.473 281.683C232.222 281.569 231.851 281.496 231.358 281.464C230.871 281.432 230.219 281.416 229.403 281.416H227.913C227.097 281.416 226.443 281.432 225.951 281.464C225.464 281.496 225.094 281.569 224.844 281.683C224.593 281.797 224.424 281.979 224.338 282.229C224.256 282.48 224.215 282.824 224.215 283.262C224.215 283.631 224.244 283.932 224.304 284.164C224.363 284.392 224.495 284.567 224.7 284.69C224.91 284.809 225.231 284.891 225.664 284.937C226.097 284.982 226.687 285.005 227.435 285.005H229.882C230.629 285.005 231.219 284.982 231.652 284.937C232.085 284.891 232.404 284.809 232.609 284.69C232.819 284.567 232.953 284.392 233.013 284.164C233.072 283.932 233.102 283.631 233.102 283.262ZM222.902 287.965C222.902 287.231 223.035 286.668 223.299 286.276C223.563 285.884 223.907 285.645 224.331 285.559C223.912 285.481 223.568 285.256 223.299 284.882C223.035 284.508 222.902 283.968 222.902 283.262C222.902 282.665 222.968 282.173 223.101 281.785C223.237 281.398 223.481 281.095 223.832 280.876C224.188 280.657 224.689 280.505 225.336 280.418C225.983 280.327 226.819 280.281 227.845 280.281H229.472C230.497 280.281 231.333 280.327 231.98 280.418C232.628 280.505 233.127 280.657 233.478 280.876C233.833 281.095 234.077 281.398 234.209 281.785C234.346 282.173 234.414 282.665 234.414 283.262C234.414 283.968 234.28 284.508 234.011 284.882C233.746 285.256 233.405 285.481 232.985 285.559C233.409 285.645 233.753 285.884 234.018 286.276C234.282 286.668 234.414 287.231 234.414 287.965C234.414 288.58 234.355 289.097 234.236 289.517C234.122 289.931 233.899 290.264 233.566 290.515C233.234 290.765 232.753 290.945 232.124 291.055C231.495 291.164 230.668 291.219 229.643 291.219H227.674C226.648 291.219 225.821 291.164 225.192 291.055C224.563 290.945 224.083 290.765 223.75 290.515C223.417 290.264 223.192 289.931 223.073 289.517C222.959 289.097 222.902 288.58 222.902 287.965ZM233.102 287.965C233.102 287.559 233.07 287.233 233.006 286.987C232.942 286.741 232.799 286.554 232.575 286.427C232.352 286.299 232.006 286.215 231.536 286.174C231.067 286.128 230.424 286.105 229.608 286.105H227.708C226.892 286.105 226.25 286.128 225.78 286.174C225.311 286.215 224.965 286.299 224.741 286.427C224.518 286.554 224.374 286.741 224.311 286.987C224.247 287.233 224.215 287.559 224.215 287.965C224.215 288.421 224.247 288.787 224.311 289.065C224.379 289.343 224.527 289.558 224.755 289.708C224.983 289.854 225.334 289.954 225.808 290.009C226.282 290.059 226.926 290.084 227.742 290.084H229.574C230.39 290.084 231.035 290.059 231.509 290.009C231.983 289.954 232.334 289.854 232.562 289.708C232.789 289.558 232.935 289.343 232.999 289.065C233.067 288.787 233.102 288.421 233.102 287.965ZM246.445 285.613C246.445 284.811 246.418 284.15 246.363 283.631C246.309 283.111 246.206 282.701 246.056 282.4C245.91 282.1 245.696 281.881 245.413 281.744C245.135 281.603 244.773 281.514 244.326 281.478C243.88 281.437 243.33 281.416 242.679 281.416H241.271C240.619 281.416 240.07 281.437 239.623 281.478C239.176 281.514 238.812 281.603 238.529 281.744C238.251 281.881 238.037 282.1 237.887 282.4C237.741 282.701 237.641 283.111 237.586 283.631C237.531 284.15 237.504 284.811 237.504 285.613V285.887C237.504 286.661 237.531 287.304 237.586 287.814C237.641 288.325 237.741 288.733 237.887 289.038C238.037 289.343 238.251 289.571 238.529 289.722C238.812 289.872 239.176 289.97 239.623 290.016C240.07 290.061 240.619 290.084 241.271 290.084H242.679C243.33 290.084 243.88 290.061 244.326 290.016C244.773 289.97 245.135 289.872 245.413 289.722C245.696 289.571 245.91 289.343 246.056 289.038C246.206 288.733 246.309 288.325 246.363 287.814C246.418 287.304 246.445 286.661 246.445 285.887V285.613ZM236.191 285.887V285.613C236.191 284.684 236.237 283.904 236.328 283.275C236.419 282.642 236.576 282.127 236.8 281.73C237.023 281.334 237.326 281.031 237.709 280.821C238.096 280.612 238.582 280.47 239.165 280.397C239.748 280.32 240.45 280.281 241.271 280.281H242.679C243.499 280.281 244.201 280.32 244.784 280.397C245.368 280.47 245.851 280.612 246.233 280.821C246.621 281.031 246.926 281.334 247.149 281.73C247.373 282.127 247.53 282.642 247.621 283.275C247.712 283.904 247.758 284.684 247.758 285.613V285.887C247.758 287.012 247.683 287.926 247.532 288.628C247.386 289.33 247.127 289.868 246.753 290.241C246.384 290.615 245.869 290.87 245.208 291.007C244.547 291.148 243.704 291.219 242.679 291.219H241.271C240.245 291.219 239.402 291.148 238.741 291.007C238.08 290.87 237.563 290.615 237.189 290.241C236.82 289.868 236.561 289.33 236.41 288.628C236.264 287.926 236.191 287.012 236.191 285.887Z" fill="white"/>
<defs>
<filter id="filter0_i_143_501" x="412.474" y="68.2554" width="295.708" height="254.105" filterUnits="userSpaceOnUse" color-interpolation-filters="sRGB">
<feFlood flood-opacity="0" result="BackgroundImageFix"/>
<feBlend mode="normal" in="SourceGraphic" in2="BackgroundImageFix" result="shape"/>
<feColorMatrix in="SourceAlpha" type="matrix" values="0 0 0 0 0 0 0 0 0 0 0 0 0 0 0 0 0 0 127 0" result="hardAlpha"/>
<feOffset dy="1"/>
<feGaussianBlur stdDeviation="1"/>
<feComposite in2="hardAlpha" operator="arithmetic" k2="-1" k3="1"/>
<feColorMatrix type="matrix" values="0 0 0 0 1 0 0 0 0 1 0 0 0 0 1 0 0 0 0.25 0"/>
<feBlend mode="normal" in2="shape" result="effect1_innerShadow_143_501"/>
</filter>
<filter id="filter1_i_143_501" x="489.719" y="148.5" width="141" height="121.102" filterUnits="userSpaceOnUse" color-interpolation-filters="sRGB">
<feFlood flood-opacity="0" result="BackgroundImageFix"/>
<feBlend mode="normal" in="SourceGraphic" in2="BackgroundImageFix" result="shape"/>
<feColorMatrix in="SourceAlpha" type="matrix" values="0 0 0 0 0 0 0 0 0 0 0 0 0 0 0 0 0 0 127 0" result="hardAlpha"/>
<feOffset dy="1"/>
<feGaussianBlur stdDeviation="1"/>
<feComposite in2="hardAlpha" operator="arithmetic" k2="-1" k3="1"/>
<feColorMatrix type="matrix" values="0 0 0 0 1 0 0 0 0 1 0 0 0 0 1 0 0 0 0.25 0"/>
<feBlend mode="normal" in2="shape" result="effect1_innerShadow_143_501"/>
</filter>
<filter id="filter2_i_143_501" x="17.2555" y="68.2554" width="295.708" height="254.105" filterUnits="userSpaceOnUse" color-interpolation-filters="sRGB">
<feFlood flood-opacity="0" result="BackgroundImageFix"/>
<feBlend mode="normal" in="SourceGraphic" in2="BackgroundImageFix" result="shape"/>
<feColorMatrix in="SourceAlpha" type="matrix" values="0 0 0 0 0 0 0 0 0 0 0 0 0 0 0 0 0 0 127 0" result="hardAlpha"/>
<feOffset dy="1"/>
<feGaussianBlur stdDeviation="1"/>
<feComposite in2="hardAlpha" operator="arithmetic" k2="-1" k3="1"/>
<feColorMatrix type="matrix" values="0 0 0 0 1 0 0 0 0 1 0 0 0 0 1 0 0 0 0.25 0"/>
<feBlend mode="normal" in2="shape" result="effect1_innerShadow_143_501"/>
</filter>
<filter id="filter3_i_143_501" x="94.5" y="148.5" width="141" height="121.102" filterUnits="userSpaceOnUse" color-interpolation-filters="sRGB">
<feFlood flood-opacity="0" result="BackgroundImageFix"/>
<feBlend mode="normal" in="SourceGraphic" in2="BackgroundImageFix" result="shape"/>
<feColorMatrix in="SourceAlpha" type="matrix" values="0 0 0 0 0 0 0 0 0 0 0 0 0 0 0 0 0 0 127 0" result="hardAlpha"/>
<feOffset dy="1"/>
<feGaussianBlur stdDeviation="1"/>
<feComposite in2="hardAlpha" operator="arithmetic" k2="-1" k3="1"/>
<feColorMatrix type="matrix" values="0 0 0 0 1 0 0 0 0 1 0 0 0 0 1 0 0 0 0.25 0"/>
<feBlend mode="normal" in2="shape" result="effect1_innerShadow_143_501"/>
</filter>
<linearGradient id="paint0_linear_143_501" x1="36.4457" y1="197.487" x2="293.289" y2="197.487" gradientUnits="userSpaceOnUse">
<stop stop-color="white"/>
<stop offset="0.111335" stop-color="white"/>
<stop offset="0.181335" stop-color="#788DFF"/>
<stop offset="0.376335" stop-color="#001BAC"/>
<stop offset="0.761335" stop-color="#0022D2"/>
<stop offset="0.881335" stop-color="#FF0000"/>
</linearGradient>
</defs>
</svg>
